<svg id="Layer_1" data-name="Layer 1" xmlns="http://www.w3.org/2000/svg" xmlns:xlink="http://www.w3.org/1999/xlink" viewBox="0 0 1727.55 476.66"><defs><style>.cls-1,.cls-3,.cls-5{fill:#be1e2d;}.cls-2{fill:#53c8ec;}.cls-3,.cls-5{stroke:#be1e2d;}.cls-3,.cls-4,.cls-5{stroke-miterlimit:10;}.cls-3{stroke-width:1.8px;}.cls-4{fill:none;stroke:#53c8ec;stroke-width:5.37px;}.cls-5{stroke-width:1.8px;}.cls-6{fill:#fff;}.cls-7{fill:url(#linear-gradient);}.cls-8{fill:url(#linear-gradient-2);}.cls-9{fill:url(#linear-gradient-3);}.cls-10{fill:url(#linear-gradient-4);}.cls-11{fill:url(#linear-gradient-5);}.cls-12{fill:url(#linear-gradient-6);}.cls-13{fill:url(#linear-gradient-7);}.cls-14{fill:url(#linear-gradient-8);}.cls-15{fill:url(#linear-gradient-9);}.cls-16{fill:url(#linear-gradient-10);}.cls-17{fill:url(#linear-gradient-11);}.cls-18{fill:url(#linear-gradient-12);}.cls-19{fill:url(#linear-gradient-13);}.cls-20{fill:url(#linear-gradient-14);}.cls-21{fill:url(#linear-gradient-15);}.cls-22{fill:url(#linear-gradient-16);}</style><linearGradient id="linear-gradient" x1="260.96" y1="470.26" x2="443.24" y2="470.26" gradientUnits="userSpaceOnUse"><stop offset="0.45" stop-color="#bc202e"/><stop offset="0.72" stop-color="#c0583e"/><stop offset="0.9" stop-color="#df7262"/><stop offset="1" stop-color="#f38379"/></linearGradient><linearGradient id="linear-gradient-2" x1="289.74" y1="513.76" x2="355.56" y2="513.76" gradientUnits="userSpaceOnUse"><stop offset="0.45" stop-color="#bc202e"/><stop offset="0.72" stop-color="#c0583e"/><stop offset="0.87" stop-color="#d85e56" stop-opacity="0.75"/><stop offset="1" stop-color="#f0646e" stop-opacity="0.5"/></linearGradient><linearGradient id="linear-gradient-3" x1="310.27" y1="472.39" x2="312.4" y2="472.39" gradientUnits="userSpaceOnUse"><stop offset="1" stop-color="#bc202e"/><stop offset="1" stop-color="#c0583e"/></linearGradient><linearGradient id="linear-gradient-4" x1="308.14" y1="367.48" x2="366.72" y2="367.48" xlink:href="#linear-gradient-2"/><linearGradient id="linear-gradient-5" x1="288.66" y1="383.63" x2="332.86" y2="383.63" xlink:href="#linear-gradient-2"/><linearGradient id="linear-gradient-6" x1="342.58" y1="503.4" x2="422.58" y2="503.4" xlink:href="#linear-gradient-2"/><linearGradient id="linear-gradient-7" x1="362.68" y1="545.52" x2="424.09" y2="545.52" xlink:href="#linear-gradient-2"/><linearGradient id="linear-gradient-8" x1="359.85" y1="524.27" x2="421.12" y2="524.27" xlink:href="#linear-gradient-2"/><linearGradient id="linear-gradient-9" x1="347.93" y1="606.94" x2="398.78" y2="606.94" xlink:href="#linear-gradient-2"/><linearGradient id="linear-gradient-10" x1="361.88" y1="567.4" x2="422.08" y2="567.4" xlink:href="#linear-gradient-2"/><linearGradient id="linear-gradient-11" x1="356.48" y1="588.03" x2="415.3" y2="588.03" xlink:href="#linear-gradient-2"/><linearGradient id="linear-gradient-12" x1="336.62" y1="621.81" x2="366.16" y2="621.81" xlink:href="#linear-gradient-2"/><linearGradient id="linear-gradient-13" x1="326.21" y1="625.86" x2="338.18" y2="625.86" xlink:href="#linear-gradient-2"/><linearGradient id="linear-gradient-14" x1="307.36" y1="620.11" x2="318.13" y2="620.11" xlink:href="#linear-gradient-2"/><linearGradient id="linear-gradient-15" x1="291.45" y1="613.53" x2="304.95" y2="613.53" xlink:href="#linear-gradient-2"/><linearGradient id="linear-gradient-16" x1="301.56" y1="323.29" x2="323.24" y2="323.29" xlink:href="#linear-gradient-2"/></defs><title>Horizontal-IOI-2020-Colour-Logo</title><path class="cls-1" d="M695,402.33c17.37,0,31.27,13.65,31.27,30.6s-13.9,30.44-31.27,30.44-31.19-13.48-31.19-30.44S677.64,402.33,695,402.33Zm0,50c11,0,20-8.73,20-19.41s-9-19.58-20-19.58a19.5,19.5,0,1,0,0,39Z" transform="translate(-94 -183.29)"/><path class="cls-1" d="M738.53,404.78a1.64,1.64,0,0,1,1.65-1.61h8a1.7,1.7,0,0,1,1.66,1.61v47.56H772a1.64,1.64,0,0,1,1.65,1.62v7a1.63,1.63,0,0,1-1.65,1.61h-31.8a1.63,1.63,0,0,1-1.65-1.61Z" transform="translate(-94 -183.29)"/><path class="cls-1" d="M790.65,434l-19.8-28.32a1.57,1.57,0,0,1,1.39-2.46h8.86a1.74,1.74,0,0,1,1.39.77l13.9,19.5,13.9-19.5a1.73,1.73,0,0,1,1.39-.77h8.94a1.57,1.57,0,0,1,1.39,2.46L802,433.86v27.05a1.68,1.68,0,0,1-1.65,1.61h-8a1.63,1.63,0,0,1-1.65-1.61Z" transform="translate(-94 -183.29)"/><path class="cls-1" d="M835.48,403.6a1.45,1.45,0,0,1,1.56-1.27h1.39a1.6,1.6,0,0,1,1.48.84l19.11,40h.26l19.11-40a1.52,1.52,0,0,1,1.48-.84h1.39a1.44,1.44,0,0,1,1.56,1.27l10.25,57a1.48,1.48,0,0,1-1.56,1.95h-7.9a1.86,1.86,0,0,1-1.65-1.27l-5.13-32.13h-.26l-15.2,33.31a1.49,1.49,0,0,1-1.48.94h-1.56a1.57,1.57,0,0,1-1.48-.94l-15.38-33.31h-.26l-5,32.13a1.69,1.69,0,0,1-1.57,1.27h-7.82a1.56,1.56,0,0,1-1.65-1.95Z" transform="translate(-94 -183.29)"/><path class="cls-1" d="M905.85,404.78a1.63,1.63,0,0,1,1.65-1.61h20.41c10.69,0,19.46,8.48,19.46,18.74A19.3,19.3,0,0,1,928,441H917.14v19.93a1.68,1.68,0,0,1-1.65,1.61h-8a1.62,1.62,0,0,1-1.65-1.61Zm21.37,25.86a8.84,8.84,0,0,0,8.94-8.82c0-4.66-4.08-8.22-8.94-8.22H917.14v17Z" transform="translate(-94 -183.29)"/><path class="cls-1" d="M958.14,404.78a1.69,1.69,0,0,1,1.65-1.61h8.08a1.69,1.69,0,0,1,1.65,1.61v56.13a1.68,1.68,0,0,1-1.65,1.61h-8.08a1.68,1.68,0,0,1-1.65-1.61Z" transform="translate(-94 -183.29)"/><path class="cls-1" d="M978.3,460.31l27-57.05a1.56,1.56,0,0,1,1.48-.93h.87a1.46,1.46,0,0,1,1.47.93l26.76,57.05a1.5,1.5,0,0,1-1.48,2.21h-7.55a2.48,2.48,0,0,1-2.52-1.7l-4.26-9.15h-26l-4.26,9.15a2.62,2.62,0,0,1-2.52,1.7h-7.56A1.5,1.5,0,0,1,978.3,460.31Zm37.52-18.05-8.68-18.66h-.26l-8.52,18.66Z" transform="translate(-94 -183.29)"/><path class="cls-1" d="M1044.67,404.78a1.61,1.61,0,0,1,1.56-1.61h20.59c16.76,0,30.49,13.31,30.49,29.59,0,16.45-13.73,29.76-30.49,29.76h-20.59a1.61,1.61,0,0,1-1.56-1.61Zm21.1,47.4c11.3,0,19.55-8.31,19.55-19.42s-8.25-19.33-19.55-19.33h-9.9v38.75Z" transform="translate(-94 -183.29)"/><path class="cls-1" d="M1129.71,404.78a1.69,1.69,0,0,1,1.65-1.61h8.08a1.69,1.69,0,0,1,1.65,1.61v56.13a1.68,1.68,0,0,1-1.65,1.61h-8.08a1.68,1.68,0,0,1-1.65-1.61Z" transform="translate(-94 -183.29)"/><path class="cls-1" d="M1157.77,403.85a1.61,1.61,0,0,1,1.65-1.52h2.17l36.14,37.47h.09v-35a1.63,1.63,0,0,1,1.65-1.61h8a1.69,1.69,0,0,1,1.65,1.61v57.06a1.62,1.62,0,0,1-1.65,1.53h-2.09l-36.31-38.92H1169v36.46a1.63,1.63,0,0,1-1.65,1.61h-7.91a1.68,1.68,0,0,1-1.65-1.61Z" transform="translate(-94 -183.29)"/><path class="cls-1" d="M1245.86,404.78a1.69,1.69,0,0,1,1.65-1.61h8.08a1.69,1.69,0,0,1,1.65,1.61v56.13a1.68,1.68,0,0,1-1.65,1.61h-8.08a1.68,1.68,0,0,1-1.65-1.61Z" transform="translate(-94 -183.29)"/><path class="cls-1" d="M1273.92,403.85a1.61,1.61,0,0,1,1.65-1.52h2.17l36.14,37.47h.08v-35a1.64,1.64,0,0,1,1.65-1.61h8a1.69,1.69,0,0,1,1.65,1.61v57.06a1.62,1.62,0,0,1-1.65,1.53h-2.08l-36.31-38.92h-.09v36.46a1.62,1.62,0,0,1-1.65,1.61h-7.9a1.68,1.68,0,0,1-1.65-1.61Z" transform="translate(-94 -183.29)"/><path class="cls-1" d="M1341.94,404.78a1.63,1.63,0,0,1,1.65-1.61h35.35a1.63,1.63,0,0,1,1.65,1.61v7a1.63,1.63,0,0,1-1.65,1.61h-25.71v15.94h21.45a1.68,1.68,0,0,1,1.65,1.61v7a1.68,1.68,0,0,1-1.65,1.61h-21.45v21.45a1.68,1.68,0,0,1-1.65,1.61h-8a1.62,1.62,0,0,1-1.65-1.61Z" transform="translate(-94 -183.29)"/><path class="cls-1" d="M1418.64,402.33c17.38,0,31.27,13.65,31.27,30.6s-13.89,30.44-31.27,30.44-31.18-13.48-31.18-30.44S1401.27,402.33,1418.64,402.33Zm0,50c10.95,0,20-8.73,20-19.41s-9-19.58-20-19.58a19.85,19.85,0,0,0-19.89,19.58C1398.75,443.61,1407.7,452.34,1418.64,452.34Z" transform="translate(-94 -183.29)"/><path class="cls-1" d="M1462.17,404.78a1.63,1.63,0,0,1,1.65-1.61h24.84c10.42,0,18.94,8.14,18.94,18.23,0,7.8-5.3,14.16-12.86,17.13l11.9,21.53a1.61,1.61,0,0,1-1.47,2.46H1496a1.52,1.52,0,0,1-1.39-.76l-11.55-22.47h-9.64v21.62a1.68,1.68,0,0,1-1.65,1.61h-8a1.62,1.62,0,0,1-1.65-1.61Zm25.53,25.44a8.73,8.73,0,0,0,8.6-8.65,8.54,8.54,0,0,0-8.6-8.22h-14.16v16.87Z" transform="translate(-94 -183.29)"/><path class="cls-1" d="M1527.23,403.6a1.45,1.45,0,0,1,1.56-1.27h1.39a1.6,1.6,0,0,1,1.48.84l19.11,40h.26l19.11-40a1.52,1.52,0,0,1,1.48-.84H1573a1.44,1.44,0,0,1,1.56,1.27l10.25,57a1.48,1.48,0,0,1-1.56,1.95h-7.9a1.86,1.86,0,0,1-1.65-1.27l-5.13-32.13h-.26l-15.2,33.31a1.49,1.49,0,0,1-1.48.94h-1.56a1.56,1.56,0,0,1-1.48-.94l-15.38-33.31H1533l-5,32.13a1.69,1.69,0,0,1-1.57,1.27h-7.82a1.57,1.57,0,0,1-1.65-1.95Z" transform="translate(-94 -183.29)"/><path class="cls-1" d="M1589.69,460.31l27-57.05a1.55,1.55,0,0,1,1.47-.93h.87a1.48,1.48,0,0,1,1.48.93l26.75,57.05a1.5,1.5,0,0,1-1.47,2.21h-7.56a2.5,2.5,0,0,1-2.52-1.7l-4.26-9.15h-26l-4.26,9.15a2.61,2.61,0,0,1-2.52,1.7h-7.55A1.5,1.5,0,0,1,1589.69,460.31Zm37.53-18.05-8.69-18.66h-.26l-8.51,18.66Z" transform="translate(-94 -183.29)"/><path class="cls-1" d="M1661,413.35h-13.29a1.64,1.64,0,0,1-1.65-1.61v-7a1.64,1.64,0,0,1,1.65-1.61h38a1.63,1.63,0,0,1,1.65,1.61v7a1.63,1.63,0,0,1-1.65,1.61h-13.29v47.56a1.68,1.68,0,0,1-1.65,1.61h-8.08a1.68,1.68,0,0,1-1.65-1.61Z" transform="translate(-94 -183.29)"/><path class="cls-1" d="M1697.24,404.78a1.69,1.69,0,0,1,1.65-1.61H1707a1.7,1.7,0,0,1,1.65,1.61v56.13a1.69,1.69,0,0,1-1.65,1.61h-8.08a1.68,1.68,0,0,1-1.65-1.61Z" transform="translate(-94 -183.29)"/><path class="cls-1" d="M1752.22,402.33a29.82,29.82,0,0,1,21,7.88,1.54,1.54,0,0,1,.08,2.37l-5.29,5.35a1.43,1.43,0,0,1-2.18,0,20.83,20.83,0,0,0-13.37-5,19.67,19.67,0,0,0,.08,39.34,21.17,21.17,0,0,0,13.29-4.83,1.63,1.63,0,0,1,2.18,0l5.38,5.42a1.58,1.58,0,0,1-.09,2.29,30.17,30.17,0,0,1-21.11,8.23c-17.37,0-31.35-13.48-31.35-30.44S1734.85,402.33,1752.22,402.33Z" transform="translate(-94 -183.29)"/><path class="cls-1" d="M1782,454.21l3.13-5.26a2,2,0,0,1,2.95-.59c.44.25,7.47,5.26,13.12,5.26,4.52,0,7.91-2.89,7.91-6.53,0-4.32-3.74-7.29-11-10.17-8.16-3.23-16.33-8.31-16.33-18.32,0-7.54,5.74-16.27,19.55-16.27a31,31,0,0,1,17.37,5.68,2.05,2.05,0,0,1,.52,2.79l-3.3,4.84c-.69,1-2,1.69-3,1-.69-.42-7.3-4.66-12.07-4.66-5,0-7.65,3.22-7.65,5.94,0,4,3.22,6.69,10.25,9.49,8.43,3.31,18.16,8.22,18.16,19.16,0,8.73-7.73,16.79-20,16.79-11,0-17.38-5-19.11-6.62C1781.68,456,1781.24,455.57,1782,454.21Z" transform="translate(-94 -183.29)"/><path class="cls-1" d="M860.52,299.8a1.68,1.68,0,0,1,1.65-1.61h8.08a1.68,1.68,0,0,1,1.65,1.61v56.12a1.68,1.68,0,0,1-1.65,1.61h-8.08a1.68,1.68,0,0,1-1.65-1.61Z" transform="translate(-94 -183.29)"/><path class="cls-1" d="M888.58,298.87a1.62,1.62,0,0,1,1.65-1.53h2.17l36.14,37.47h.08v-35a1.63,1.63,0,0,1,1.65-1.61h8a1.69,1.69,0,0,1,1.65,1.61v57.06a1.62,1.62,0,0,1-1.65,1.52h-2.09l-36.31-38.91h-.09v36.45a1.62,1.62,0,0,1-1.65,1.61h-7.9a1.68,1.68,0,0,1-1.65-1.61Z" transform="translate(-94 -183.29)"/><path class="cls-1" d="M964.76,308.36H951.47a1.63,1.63,0,0,1-1.65-1.61V299.8a1.63,1.63,0,0,1,1.65-1.61h38a1.62,1.62,0,0,1,1.65,1.61v6.95a1.62,1.62,0,0,1-1.65,1.61H976.14v47.56a1.68,1.68,0,0,1-1.65,1.61h-8.08a1.68,1.68,0,0,1-1.65-1.61Z" transform="translate(-94 -183.29)"/><path class="cls-1" d="M1001,299.8a1.62,1.62,0,0,1,1.65-1.61H1038a1.62,1.62,0,0,1,1.65,1.61v6.95a1.62,1.62,0,0,1-1.65,1.61h-25.71v13.91h21.46a1.68,1.68,0,0,1,1.65,1.61v7a1.62,1.62,0,0,1-1.65,1.61h-21.46v14.84H1038a1.62,1.62,0,0,1,1.65,1.61v6.95a1.62,1.62,0,0,1-1.65,1.61h-35.35a1.62,1.62,0,0,1-1.65-1.61Z" transform="translate(-94 -183.29)"/><path class="cls-1" d="M1052.94,299.8a1.62,1.62,0,0,1,1.65-1.61h24.84c10.43,0,18.94,8.14,18.94,18.23,0,7.8-5.3,14.15-12.86,17.12l11.9,21.54a1.6,1.6,0,0,1-1.47,2.45h-9.13a1.5,1.5,0,0,1-1.39-.76l-11.55-22.46h-9.64v21.61a1.68,1.68,0,0,1-1.65,1.61h-8a1.62,1.62,0,0,1-1.65-1.61Zm25.54,25.43a8.74,8.74,0,0,0,8.6-8.64,8.55,8.55,0,0,0-8.6-8.23h-14.16v16.87Z" transform="translate(-94 -183.29)"/><path class="cls-1" d="M1111.66,298.87a1.62,1.62,0,0,1,1.65-1.53h2.17l36.14,37.47h.09v-35a1.62,1.62,0,0,1,1.65-1.61h8a1.68,1.68,0,0,1,1.65,1.61v57.06a1.62,1.62,0,0,1-1.65,1.52h-2.09L1123,319.47h-.08v36.45a1.63,1.63,0,0,1-1.65,1.61h-7.91a1.68,1.68,0,0,1-1.65-1.61Z" transform="translate(-94 -183.29)"/><path class="cls-1" d="M1171.78,355.33l27-57.06a1.58,1.58,0,0,1,1.48-.93h.87a1.48,1.48,0,0,1,1.47.93l26.76,57.06a1.5,1.5,0,0,1-1.48,2.2h-7.56a2.47,2.47,0,0,1-2.51-1.69l-4.26-9.16h-26l-4.25,9.16a2.61,2.61,0,0,1-2.52,1.69h-7.56A1.49,1.49,0,0,1,1171.78,355.33Zm37.52-18.06-8.68-18.65h-.26l-8.52,18.65Z" transform="translate(-94 -183.29)"/><path class="cls-1" d="M1243.1,308.36h-13.29a1.62,1.62,0,0,1-1.65-1.61V299.8a1.62,1.62,0,0,1,1.65-1.61h38a1.63,1.63,0,0,1,1.65,1.61v6.95a1.63,1.63,0,0,1-1.65,1.61h-13.29v47.56a1.68,1.68,0,0,1-1.65,1.61h-8.08a1.68,1.68,0,0,1-1.65-1.61Z" transform="translate(-94 -183.29)"/><path class="cls-1" d="M1279.32,299.8a1.68,1.68,0,0,1,1.65-1.61h8.08a1.68,1.68,0,0,1,1.65,1.61v56.12a1.68,1.68,0,0,1-1.65,1.61H1281a1.68,1.68,0,0,1-1.65-1.61Z" transform="translate(-94 -183.29)"/><path class="cls-1" d="M1334.22,297.34c17.38,0,31.28,13.65,31.28,30.61s-13.9,30.43-31.28,30.43S1303,344.9,1303,328,1316.85,297.34,1334.22,297.34Zm0,50c11,0,20-8.73,20-19.41s-9-19.59-20-19.59A19.85,19.85,0,0,0,1314.33,328C1314.33,338.63,1323.28,347.36,1334.22,347.36Z" transform="translate(-94 -183.29)"/><path class="cls-1" d="M1377.75,298.87a1.62,1.62,0,0,1,1.65-1.53h2.17l36.14,37.47h.08v-35a1.63,1.63,0,0,1,1.65-1.61h8a1.69,1.69,0,0,1,1.65,1.61v57.06a1.62,1.62,0,0,1-1.65,1.52h-2.09L1389,319.47H1389v36.45a1.62,1.62,0,0,1-1.65,1.61h-7.9a1.68,1.68,0,0,1-1.65-1.61Z" transform="translate(-94 -183.29)"/><path class="cls-1" d="M1437.86,355.33l27-57.06a1.56,1.56,0,0,1,1.47-.93h.87a1.49,1.49,0,0,1,1.48.93l26.76,57.06a1.5,1.5,0,0,1-1.48,2.2h-7.56a2.49,2.49,0,0,1-2.52-1.69l-4.26-9.16h-26l-4.25,9.16a2.61,2.61,0,0,1-2.52,1.69h-7.56A1.5,1.5,0,0,1,1437.86,355.33Zm37.53-18.06-8.69-18.65h-.26l-8.51,18.65Z" transform="translate(-94 -183.29)"/><path class="cls-1" d="M1504.23,299.8a1.63,1.63,0,0,1,1.65-1.61h8a1.68,1.68,0,0,1,1.65,1.61v47.56h22.16a1.63,1.63,0,0,1,1.65,1.61v6.95a1.63,1.63,0,0,1-1.65,1.61h-31.8a1.63,1.63,0,0,1-1.65-1.61Z" transform="translate(-94 -183.29)"/><path class="cls-1" d="M663.69,348.75l4.43-4.15a1.51,1.51,0,0,1,2.26,0c.26.34,5.38,4.58,10.68,4.58,4.69,0,9.21-3.31,9.21-8,0-4.41-4.17-8.4-12-8.4h-4.86a1.59,1.59,0,0,1-1.65-1.69v-5.34a1.52,1.52,0,0,1,1.65-1.7h4.86c7.12,0,10.77-3.47,10.77-7.8,0-4.66-4-7.8-8.42-7.8a11.38,11.38,0,0,0-8.78,4.07,1.59,1.59,0,0,1-2.34.09l-4.26-3.9a1.5,1.5,0,0,1,0-2.21s6.6-7.46,16.33-7.46c10.08,0,18.5,6,18.5,15.52,0,6.52-5,11.44-8.94,13.22v.26c4.08,1.69,10.51,6.27,10.51,13.82,0,9.58-8,16.53-20,16.53-10.86,0-16.16-5.34-18.07-7.55A1.64,1.64,0,0,1,663.69,348.75Z" transform="translate(-94 -183.29)"/><path class="cls-1" d="M709.38,354c5.73-6.78,16.68-20.69,22.5-28.23,2.69-3.22,4.43-6.53,4.43-9.41,0-3.82-2.95-7.72-9.21-7.72-4.17,0-7.73,2.89-9.73,5a1.6,1.6,0,0,1-2.34,0l-4.17-4.07a1.63,1.63,0,0,1-.09-2.2s6.78-8.31,17.11-8.31c12.43,0,19.38,7.72,19.38,16.87,0,5.51-2.44,9-5.82,13.74-3.74,5.17-10.34,13.14-15,18.82h18.77a1.68,1.68,0,0,1,1.65,1.61V356a1.68,1.68,0,0,1-1.65,1.61H711a1.63,1.63,0,0,1-1.65-1.61Z" transform="translate(-94 -183.29)"/><path class="cls-1" d="M758.19,298.83a1,1,0,0,1,1-.9h1.29l21.43,22.22h0V299.39a1,1,0,0,1,1-1h4.74a1,1,0,0,1,1,1v33.82a1,1,0,0,1-1,.91h-1.23l-21.54-23.07h0v21.61a1,1,0,0,1-1,1h-4.69a1,1,0,0,1-1-1Z" transform="translate(-94 -183.29)"/><path class="cls-1" d="M798.52,299.39a1,1,0,0,1,.92-1h12.21c10,0,18.08,7.89,18.08,17.54a17.89,17.89,0,0,1-18.08,17.65H799.44a1,1,0,0,1-.92-1ZM811,327.48a11.49,11.49,0,1,0,0-23h-5.88v23Z" transform="translate(-94 -183.29)"/><path class="cls-2" d="M664.45,581.91l3.13-5.25a2,2,0,0,1,2.95-.6c.44.26,7.48,5.26,13.12,5.26,4.52,0,7.91-2.88,7.91-6.53,0-4.32-3.74-7.29-11-10.17-8.16-3.22-16.33-8.31-16.33-18.31,0-7.55,5.74-16.28,19.55-16.28a31,31,0,0,1,17.37,5.68,2.07,2.07,0,0,1,.52,2.8l-3.3,4.83c-.69,1-2,1.69-3,1-.69-.42-7.29-4.66-12.07-4.66-5,0-7.65,3.22-7.65,5.94,0,4,3.22,6.69,10.25,9.49,8.43,3.31,18.16,8.23,18.16,19.16,0,8.73-7.73,16.79-20,16.79-11,0-17.37-5-19.11-6.61C664.11,583.69,663.67,583.27,664.45,581.91Z" transform="translate(-94 -183.29)"/><path class="cls-2" d="M716,532.49a1.68,1.68,0,0,1,1.65-1.61h8.08a1.68,1.68,0,0,1,1.65,1.61v56.12a1.68,1.68,0,0,1-1.65,1.61h-8.08a1.68,1.68,0,0,1-1.65-1.61Z" transform="translate(-94 -183.29)"/><path class="cls-2" d="M744,531.55a1.62,1.62,0,0,1,1.65-1.52h2.17L784,567.5h.08v-35a1.63,1.63,0,0,1,1.65-1.61h8a1.69,1.69,0,0,1,1.65,1.61v57a1.62,1.62,0,0,1-1.65,1.53h-2.09l-36.31-38.92h-.09v36.46a1.62,1.62,0,0,1-1.65,1.61h-7.9a1.68,1.68,0,0,1-1.65-1.61Z" transform="translate(-94 -183.29)"/><path class="cls-2" d="M838.89,530a33.36,33.36,0,0,1,21.2,7.88,1.62,1.62,0,0,1,.08,2.38l-5.38,5.51a1.51,1.51,0,0,1-2.26,0,19.94,19.94,0,0,0-13.12-4.92A19.54,19.54,0,0,0,839.5,580a27.75,27.75,0,0,0,10.34-2.12v-7.2h-7a1.56,1.56,0,0,1-1.65-1.53v-6.7a1.58,1.58,0,0,1,1.65-1.61h16.67a1.61,1.61,0,0,1,1.57,1.61v21.71a1.61,1.61,0,0,1-.7,1.35A44.64,44.64,0,0,1,838.89,591c-17.29,0-31.19-13.39-31.19-30.35S821.6,530,838.89,530Z" transform="translate(-94 -183.29)"/><path class="cls-2" d="M866.86,588l27-57.06a1.56,1.56,0,0,1,1.48-.93h.87a1.47,1.47,0,0,1,1.47.93L924.46,588a1.5,1.5,0,0,1-1.48,2.2h-7.56a2.5,2.5,0,0,1-2.52-1.7l-4.25-9.15h-26l-4.25,9.15a2.62,2.62,0,0,1-2.52,1.7h-7.56A1.5,1.5,0,0,1,866.86,588ZM904.39,570l-8.69-18.65h-.26L886.93,570Z" transform="translate(-94 -183.29)"/><path class="cls-2" d="M933.23,532.49a1.63,1.63,0,0,1,1.65-1.61H955.3c10.68,0,19.46,8.47,19.46,18.73a19.31,19.31,0,0,1-19.37,19.08H944.53v19.92a1.68,1.68,0,0,1-1.65,1.61h-8a1.63,1.63,0,0,1-1.65-1.61Zm21.37,25.85a8.84,8.84,0,0,0,8.95-8.81c0-4.67-4.08-8.23-8.95-8.23H944.53v17Z" transform="translate(-94 -183.29)"/><path class="cls-2" d="M1012.37,530c17.38,0,31.28,13.65,31.28,30.6s-13.9,30.44-31.28,30.44-31.18-13.48-31.18-30.44S995,530,1012.37,530Zm0,50c11,0,20-8.74,20-19.42s-9-19.58-20-19.58a19.85,19.85,0,0,0-19.89,19.58C992.48,571.31,1001.43,580.05,1012.37,580.05Z" transform="translate(-94 -183.29)"/><path class="cls-2" d="M1055.9,532.49a1.62,1.62,0,0,1,1.65-1.61h24.84c10.43,0,18.94,8.13,18.94,18.22,0,7.8-5.3,14.16-12.86,17.13l11.9,21.53a1.61,1.61,0,0,1-1.47,2.46h-9.12a1.48,1.48,0,0,1-1.39-.76L1076.83,567h-9.64v21.62a1.68,1.68,0,0,1-1.65,1.61h-8a1.62,1.62,0,0,1-1.65-1.61Zm25.54,25.43a8.74,8.74,0,0,0,8.6-8.65,8.55,8.55,0,0,0-8.6-8.22h-14.16v16.87Z" transform="translate(-94 -183.29)"/><path class="cls-2" d="M1114.62,532.49a1.63,1.63,0,0,1,1.65-1.61h35.36a1.63,1.63,0,0,1,1.65,1.61v7a1.63,1.63,0,0,1-1.65,1.61h-25.71V555h21.45a1.69,1.69,0,0,1,1.65,1.61v7a1.63,1.63,0,0,1-1.65,1.61h-21.45v14.84h25.71a1.63,1.63,0,0,1,1.65,1.61v7a1.63,1.63,0,0,1-1.65,1.61h-35.36a1.63,1.63,0,0,1-1.65-1.61Z" transform="translate(-94 -183.29)"/><path class="cls-3" d="M177.56,184.88a13.09,13.09,0,0,1,5.6-.59,24.32,24.32,0,0,1,4.4,1,5.85,5.85,0,0,1,3.1,2.31,9.19,9.19,0,0,1,1.47,3.69,5.92,5.92,0,0,1-.6,3.84,13.38,13.38,0,0,1-2.25,3.14,21,21,0,0,0-2.37,3,5.4,5.4,0,0,1-3.1,2.19,3.69,3.69,0,0,1-2.93,0c-.61-.39-.26-2,1-4.94s1.35-4.58.17-5a6.84,6.84,0,0,0-4.13-.08q-2.38.59-6.81,4.32a33.79,33.79,0,0,0-7.38,8.63,25.73,25.73,0,0,0-3.49,8,22.17,22.17,0,0,0-.26,6.12c.2,2,.58,4.52,1.12,7.53s1.12,5.7,1.73,8.08a27.24,27.24,0,0,1,.26,9.38A21.31,21.31,0,0,1,160,255q-2.5,3.76-4.66,6.39a18.43,18.43,0,0,1-4.95,4.28,13.74,13.74,0,0,1-6.3,1.84,14.48,14.48,0,0,1-5.43-.47,9.32,9.32,0,0,1-4-3.37,9.65,9.65,0,0,1-2.24-4.94,9.1,9.1,0,0,1,1.55-5.18,31.1,31.1,0,0,1,5.43-6.47c2.47-2.36,4.59-3.8,6.34-4.32a11.4,11.4,0,0,0,4.66-2.71q2-1.92-.18-10.78t-1.07-15.23a34.34,34.34,0,0,1,3-9.92,33.68,33.68,0,0,1,6-7.69,37.24,37.24,0,0,1,7.28-5.92q3.15-1.82,6-3.3A30.62,30.62,0,0,1,177.56,184.88Zm-26.73,58.21q-1.29-2-6.68,4.16t-5,8.4c.26,1.52.8,2.38,1.64,2.59a5.58,5.58,0,0,0,2.54,0,4.82,4.82,0,0,0,2.33-1.26c.69-.65,1.64-1.48,2.84-2.47a10.27,10.27,0,0,0,2.85-3.77,8.27,8.27,0,0,0,.9-4A7.85,7.85,0,0,0,150.83,243.09Z" transform="translate(-94 -183.29)"/><path class="cls-3" d="M194.57,223.32a9.73,9.73,0,0,1,4.36.24c1.64.42,1.92,1.93.86,4.55s-2.23,6-3.49,10.2a102.76,102.76,0,0,1-3.58,10.2,35.06,35.06,0,0,1-3.75,6.78c-1.38,1.91-2.7,3-4,3.1a5.31,5.31,0,0,1-2.63-.11c-.49-.24-.53-1.46-.13-3.65s1.25-5.56,2.55-10.08,2.51-8.46,3.66-11.81,1.17-5.06.05-5.14-.69-.75,1.29-2A16.18,16.18,0,0,1,194.57,223.32Zm13.8-23.77c1.26.94,2,3,2.28,6.16a18.58,18.58,0,0,0,3.58,9.26,26,26,0,0,0,7.5,7.18,35.11,35.11,0,0,0,7.89,3.76c2.39.73,2.31.9-.21.51a21.93,21.93,0,0,1-7.55-2.74,40.62,40.62,0,0,1-8.06-6.44Q209.5,213,207.51,211a9.26,9.26,0,0,0-2.81-2.23,14,14,0,0,0-1.38-.35,11.31,11.31,0,0,1-2.58-1.57,3.15,3.15,0,0,1-1.47-3.57,7.41,7.41,0,0,1,1.51-3.14,6.31,6.31,0,0,1,3.32-1.53A4.94,4.94,0,0,1,208.37,199.55Z" transform="translate(-94 -183.29)"/><path class="cls-3" d="M222,225.28a6.07,6.07,0,0,1,4.61.32q2.81,1.1,1.21,4.08l-5.22,9.84q-3.62,6.87-.73,3.77a61.1,61.1,0,0,1,7-6.32,44.16,44.16,0,0,1,5.9-4.15,16.33,16.33,0,0,1,3.92-1.42,10.18,10.18,0,0,1,4.79.24,7.78,7.78,0,0,1,4.57,4q1.89,3.26,2,10.75c.08,5,1.43,7.44,4,7.34a14.72,14.72,0,0,0,7.63-2.63,21,21,0,0,0,5.52-5c1.2-1.7,1.72-2.16,1.55-1.38a10.66,10.66,0,0,1-2,3.46,57.41,57.41,0,0,1-7.33,7.06q-5.61,4.79-9.7,4.86a6.28,6.28,0,0,1-6-3q-1.86-3.06-2.42-9.77c-.37-4.47-1-6.75-1.94-6.82s-2.93.75-6,2.51a34.69,34.69,0,0,0-8.54,6.86c-2.58,2.83-4.7,5.22-6.33,7.18s-3.12,3.15-4.45,3.57a2.73,2.73,0,0,1-3.23-.94,4.66,4.66,0,0,1-.86-3.85q.39-2.27,1.51-7a71.64,71.64,0,0,1,3.19-9.92q2.07-5.22-.95-3.42a60.39,60.39,0,0,0-7.37,5.46q-4.35,3.65,3.1-3.46t8.28-8.27q.82-1.19,1.59-2.16A6.71,6.71,0,0,1,222,225.28Z" transform="translate(-94 -183.29)"/><path class="cls-3" d="M301.46,225.21c4.25.26,5.93,1.22,5,2.9a38.12,38.12,0,0,0-2.71,8.79q-1.38,6.27-2.59,10.63a59.07,59.07,0,0,1-3.45,9.18c-1.49,3.21-2.66,5.7-3.49,7.45s-1.87,3.73-3.1,5.92-3.28,5.31-6.13,9.34a49.17,49.17,0,0,1-9.82,10.4q-5.56,4.35-9.06,5.21a14.16,14.16,0,0,1-7.84-.54,6.39,6.39,0,0,1-4.7-6.12q-.35-4.71,12.15-15.38t1.51-.79q-11,9.89-11.16,13.58T258,290a6.68,6.68,0,0,0,4.05-.15,22.81,22.81,0,0,0,5.52-3.34,63.58,63.58,0,0,0,5.86-4.9,51,51,0,0,0,5.74-7,77.87,77.87,0,0,0,6.08-10c1.81-3.55,3-6,3.7-7.41s1.86-4.28,3.58-8.67,1.47-5.52-.77-3.38a74.62,74.62,0,0,1-8.84,7,33.49,33.49,0,0,1-9,4.82,11.09,11.09,0,0,1-5.39.55,6.86,6.86,0,0,1-3.28-1.92c-.94-1-1.12-2.88-.51-5.73a34.08,34.08,0,0,1,4.52-10.2,28.35,28.35,0,0,1,8.45-9.1,40.78,40.78,0,0,1,8.62-4.51,17.52,17.52,0,0,1,6-1.26A15.22,15.22,0,0,1,297.1,226Q299.83,227,301.46,225.21Zm-9.23,8.31c-1-.89-2.44-.8-4.39.28a39.92,39.92,0,0,0-12.59,11.8q-2.42,3.69,2.33,1.1a56.85,56.85,0,0,0,8.53-5.65,55,55,0,0,0,5.61-5C292.92,234.73,293.1,233.89,292.23,233.52Z" transform="translate(-94 -183.29)"/><path class="cls-3" d="M343.74,224.11a11.8,11.8,0,0,1,4.35-.16,8.27,8.27,0,0,1,3.79,1.33,9.58,9.58,0,0,1,2.72,4c.86,2,.47,3.32-1.16,4a4,4,0,0,1-4.44-.71,3.58,3.58,0,0,0-4.14-.71c-1.44.68-2.86,1.38-4.27,2.08a38.7,38.7,0,0,0-5.22,3.34,46.41,46.41,0,0,0-6.38,5.8c-2.18,2.36-3.39,3.86-3.62,4.52s.33.56,1.68-.28,3.42-2.1,6.21-3.8a81.05,81.05,0,0,1,10.52-5.22c4.22-1.78,6.9-2.47,8-2.08a6.2,6.2,0,0,1,2.89,2.16,6.44,6.44,0,0,1,1.38,2.7,2.23,2.23,0,0,1-.39,1.81,9.86,9.86,0,0,0-1.3,3,6.76,6.76,0,0,0,.13,4.55,6,6,0,0,0,2.2,3,5.36,5.36,0,0,0,3.67.47c1.55-.23,3.46-1.31,5.73-3.22s2.17-1.46-.3,1.34-4.43,4.58-5.86,5.33a7.41,7.41,0,0,1-3.37,1.1,11.23,11.23,0,0,1-3.14-.7,12,12,0,0,1-3.67-2.08,10.2,10.2,0,0,1-2.71-3.46,29.72,29.72,0,0,1-1.34-3,5.86,5.86,0,0,0-1.59-2.15,2.75,2.75,0,0,0-3.07-.51,39.23,39.23,0,0,0-6.33,3.64,77.89,77.89,0,0,1-8.45,4.91,35.19,35.19,0,0,1-7,2.67,11.23,11.23,0,0,1-4,.51,4.16,4.16,0,0,1-2-1.77,6.77,6.77,0,0,1-1.25-3.33,7.69,7.69,0,0,1,.56-3.65q.74-1.84,5.52-7.38a70,70,0,0,1,9.22-9.06,52.43,52.43,0,0,1,9.44-6A47.33,47.33,0,0,1,343.74,224.11Z" transform="translate(-94 -183.29)"/><path class="cls-3" d="M374.89,227.4q7.68-4.71,9.4-5.25a2.91,2.91,0,0,1,2.89.39,3.7,3.7,0,0,1,1.38,2.31q.21,1.38-.91,6t0,3.77a14.91,14.91,0,0,1,3.19-1.73q2.07-.85,5.22-1.88a16.08,16.08,0,0,1,5.91-.86,7.74,7.74,0,0,1,4.18,1.21,7.17,7.17,0,0,1,1.81,1.73c.26.45.6,1.09,1,1.92a5.9,5.9,0,0,1,.65,1.53,7.31,7.31,0,0,0,.17,1.18,9.41,9.41,0,0,1-.17,3,18.75,18.75,0,0,1-6.38,10.51,28.48,28.48,0,0,1-5.18,3.65,35.09,35.09,0,0,1-4.61,2,24.93,24.93,0,0,1-5.08,1.22,5.83,5.83,0,0,1-4.14-.67,3,3,0,0,1-1.56-2.31,5.79,5.79,0,0,1,.91-2.94,27.43,27.43,0,0,1,1.94-3,18.16,18.16,0,0,1,3.32-3.06,21.26,21.26,0,0,1,4.87-2.78,23.78,23.78,0,0,1,4-1.3q1.47-.27-1.94,1.85a61.4,61.4,0,0,0-5.95,4.16c-1.7,1.36-2.24,2.35-1.64,3s1.7.67,3.28.12,3.88-2.19,6.9-4.91,4-5.06,2.93-7-3.11-2.43-6.12-1.41a26.21,26.21,0,0,0-8.06,4.35q-3.54,2.83-7.42,11.42t-5.52,12.71c-1.09,2.75-2.54,6.52-4.35,11.34a118.31,118.31,0,0,1-6.34,14q-3.61,6.79-5.9,6a4.22,4.22,0,0,1-2.81-2.23,6.22,6.22,0,0,1-.3-3,13.73,13.73,0,0,1,1.42-4,83.75,83.75,0,0,0,3.28-8q2.07-5.56,8.75-21.46t7.93-18.83c.84-2,1.91-4.85,3.24-8.67s1.45-5.56.38-5.22a71.26,71.26,0,0,0-6.94,3.14Q367.22,232,374.89,227.4Z" transform="translate(-94 -183.29)"/><path class="cls-3" d="M428,227.72a7.92,7.92,0,0,1,4-1.81,7.33,7.33,0,0,1,3.93.24,5.81,5.81,0,0,1,2.63,2.23c.71,1.08,2.51,1.59,5.38,1.53s6.46,0,10.74,0,3.37.2-2.72.35-9.55.38-10.39.67-1.18,1.22-1,2.79.26,3.23.34,5,.1,3.7.05,5.84a21.65,21.65,0,0,1-.52,4.79,18,18,0,0,1-1.3,3.3,17.42,17.42,0,0,1-2.54,3.64,20.35,20.35,0,0,1-4.14,3.57,24.43,24.43,0,0,1-4.52,2.48,6.57,6.57,0,0,1-4.49.07,8.73,8.73,0,0,1-3.92-2.35,14.92,14.92,0,0,1-2.41-3.33q-.92-1.73-.78-6.05a24.36,24.36,0,0,1,1-6.94,24.66,24.66,0,0,1,2.81-5.49c1.26-1.91,1.64-2.8,1.12-2.67s-.65.07-.39-.2,1.25-1.38,3-3.37A45.15,45.15,0,0,1,428,227.72ZM432.34,240q-1.89-2.11-4.74,1.18a13.79,13.79,0,0,0-3.4,7c-.38,2.46-.23,4.19.43,5.18a3.62,3.62,0,0,0,2.07,1.73c.71.16,1.73-.28,3.06-1.3s2.4-3.23,3.23-6.63S433.61,241.39,432.34,240Z" transform="translate(-94 -183.29)"/><path class="cls-3" d="M457.38,234.7q3.11-10.9,6-10.67a5.52,5.52,0,0,1,4.35,2.35q1.47,2.12-.3,5.22c-1.18,2.07-1.29,3-.34,2.9a10.9,10.9,0,0,0,3.75-1.57,31.3,31.3,0,0,1,4.44-2.19,19.06,19.06,0,0,1,3.4-1.06,13.56,13.56,0,0,1,5,.78,31.05,31.05,0,0,1,6.94,2.87c2.19,1.23,5.07,1.33,8.67.31s3.2-.68-1.17,1a34.33,34.33,0,0,1-13.4,2.39q-6.85-.15-10.61,1.49a30.58,30.58,0,0,0-6.34,3.65,18.1,18.1,0,0,0-4.78,6.59q-2.2,4.59-3.36,7.73c-.78,2.09-1.47,3.81-2.07,5.14s-1.84,2-3.71,2.12-3.1-.54-3.71-1.85-.74-2.15-.43-2.55,1.18-2.78,2.59-7.17S455.37,242,457.38,234.7Z" transform="translate(-94 -183.29)"/><path class="cls-3" d="M514.14,223.64q5.77-.4,7,1.76a10.3,10.3,0,0,1,1.16,5.49q-.09,3.35-3.45,5.65a47.51,47.51,0,0,1-8.88,4.59,9.07,9.07,0,0,1-2.8.59,11.75,11.75,0,0,1-2.07-.08c-.55-.08-1-.15-1.29-.23s-.51,0-.56.11a8.33,8.33,0,0,0-1.6,4.56,6.05,6.05,0,0,0,1.64,4.19,6.18,6.18,0,0,0,3.75,2.24,12.56,12.56,0,0,0,4.31-.12,63,63,0,0,0,8.28-2.71q6-2.27,8.4-4.27c1.58-1.34,3.09-2.63,4.53-3.89s1.64-1.25.6,0-2.31,2.78-3.83,4.56a38.8,38.8,0,0,1-5.69,5.29c-2.27,1.75-4.13,3.1-5.56,4a23.79,23.79,0,0,1-5.74,2.55,16.21,16.21,0,0,1-7,.71,13.93,13.93,0,0,1-5.18-1.45,17,17,0,0,1-3.19-2.44,11.75,11.75,0,0,1-2.41-3.33,12.46,12.46,0,0,1-1-5.26,17.15,17.15,0,0,1,1.72-7.25,26.49,26.49,0,0,1,4-6.52,31.67,31.67,0,0,1,6.08-5.21A22.67,22.67,0,0,1,514.14,223.64Zm.09,7.06c-.41-.37-1.4-.19-3,.55a9.19,9.19,0,0,0-3.45,2.47c-.72.91-.85,1.58-.39,2s1.44.25,2.94-.51a18.43,18.43,0,0,0,3.57-2.28C514.81,232.18,514.92,231.43,514.23,230.7Z" transform="translate(-94 -183.29)"/><path class="cls-4" d="M562.26,402.93H171.78c-22.26,0-42.21-4.26-57.71-12.31-11.6-6-16.64-12.09-16.85-12.34-.9-1.1-.66-2.35.63-3.34a10.14,10.14,0,0,1,5.83-1.62l66.88-.62v-4c0-2,3.19-3.58,7.12-3.58h28c3.94,0,7.13,1.6,7.13,3.58v2.89c13.88,2.26,59.76,8.65,135.33,8.65,74.62,0,118.12-4.44,132.16-6.15v-3.71c0-2,3.18-3.59,7.12-3.59H524.5c3.93,0,7.12,1.6,7.12,3.59v5h30.64c3.94,0,7.13,1.6,7.13,3.58v20.36C569.39,401.32,566.2,402.93,562.26,402.93Zm-458.45-26h0Z" transform="translate(-94 -183.29)"/><path class="cls-2" d="M248.19,411.77A137,137,0,0,0,227.81,409c-7.32-.55-14.67-.75-22-.68-7.58.06-15.18.4-22.72,1.14-6.78.66-13.84,1.49-20.31,3.73-2.83,1-6.72,2.57-7.88,5.64-1.47,3.91,3.36,5.86,6.18,6.91l-1.51-.86a77.92,77.92,0,0,1,23.17,32.28,72,72,0,0,1,4.44,20.59c.44,7-.07,14.08-.48,21.08C185,528,181.87,557,178.62,586.05c-1.43,12.73-2.9,25.46-4.49,38.17-.2,1.6,1.7,2.47,3,2.47H234c2.58,0,6-1.54,5.61-4.56-1.3-10.36-2.63-21.81-3.87-32.72q-2.46-21.76-4.63-43.56c-1.42-14.52-2.73-29.05-3.68-43.6-.91-14-2.08-28.2,2-41.8A73.73,73.73,0,0,1,239,440.37a82.63,82.63,0,0,1,7.18-9.09c1.35-1.49,2-2.1,3.26-3.35s2.59-2.39,4-3.52l-2,1.1c3.21-1.19,10.31-4.62,7.09-9.09a8.47,8.47,0,0,0-3.6-2.54,39.55,39.55,0,0,0-6.65-2.11,6.18,6.18,0,0,0-6,2,2.33,2.33,0,0,0,1.32,3.92c.88.21,1.76.43,2.63.68.39.12.78.23,1.16.36l.72.24c.2.07.49.19.12,0a13.49,13.49,0,0,1,1.63.77l.63.41c-.48-.29-.22-.16.06.09s.4.75,0-.05c.2.43,0,.13,0-.22,0,.15-.09.37,0,0a2.56,2.56,0,0,1,.32-.64c-.09.14-.18.42,0,0,.33-.66-.3.39.17-.14.3-.35.12-.07-.08,0l-.47.25-.52.26c.1-.05.65-.23.13-.07a10.4,10.4,0,0,0-3.68,2.21,85.54,85.54,0,0,0-14.94,16.73,79.05,79.05,0,0,0-13.71,45c.06,7.82.63,15.66,1.17,23.47.57,8.24,1.26,16.48,2,24.72,1.47,16.34,3.16,32.67,5,49q2.39,21.56,5,43.07c.05.38.1.77.14,1.15l5.61-4.56H179.83l3,2.47q3.35-26.74,6.17-53.57c2.33-21.7,4.5-43.44,6-65.22.7-10.43,1.73-21.11.56-31.53a76.22,76.22,0,0,0-9.68-29.7A83.65,83.65,0,0,0,176.76,430c-1.56-1.81-3.2-3.56-4.91-5.23s-3.78-4-6.07-5c-.33-.14-.75-.31-1.11-.49l-.64-.34s-.82-.57-.45-.27-.11-.12-.17-.19c-.3-.29-.15-.1-.13-.11s0,0,.05.18,0,.28,0,.06l-.15.53c.25-.75-.43.52-.07.09-.65.79-.52.54-.31.32s.71-.53.09-.09.4-.19.56-.28.75-.33.13-.07.22-.08.37-.13a29.31,29.31,0,0,1,3.18-1c.1,0,1-.26.5-.14l.57-.13,1.59-.34c2.17-.43,4.35-.78,6.54-1.08a212.42,212.42,0,0,1,30.71-1.75c5.3,0,10.6.2,15.9.54,2.5.17,5,.37,7.49.62s4.95.56,6.87.86,4.12.71,6.16,1.17a6.22,6.22,0,0,0,6-2A2.34,2.34,0,0,0,248.19,411.77Z" transform="translate(-94 -183.29)"/><path class="cls-2" d="M538.7,413.74c-9.66-2.27-19.76-2.94-29.65-3.27a260.4,260.4,0,0,0-33.4.92,143.13,143.13,0,0,0-15.84,2.27,60.61,60.61,0,0,0-8,2.12,14.63,14.63,0,0,0-4.82,2.48,2.05,2.05,0,0,0-.63,2.76,5.72,5.72,0,0,0,2,1.61c.56.31,1.16.52,1.73.79a5.89,5.89,0,0,1,1.45,1.05,79.39,79.39,0,0,1,23.82,38.62,77.68,77.68,0,0,1,2.38,16.05c.23,5.29-.08,10.61-.34,15.89-1.11,22-3.22,44.05-5.43,66q-3.09,30.65-6.76,61.24c-.07.65-.15,1.3-.23,2s2.16.44,2.31.44h55.28a18.05,18.05,0,0,0,4.5-.65c.3-.09,2.16-.48,2.09-1.08q-4.65-38.25-8.31-76.6c-1.4-14.68-2.69-29.37-3.62-44.08-.44-7-1-14.09-.91-21.13a77,77,0,0,1,27.35-58.77l-1.09.55c1.66-.63,7.19-2.63,5-5.32a7.49,7.49,0,0,0-3-2,37.16,37.16,0,0,0-5.94-1.85c-1.89-.46-4.29.08-6.13.57-.6.16-3.2,1-1.43,1.44a31.92,31.92,0,0,1,5,1.55,7.08,7.08,0,0,1,2.7,1.68c1.89,2.33-3,3.48-4.05,4.38a74.62,74.62,0,0,0-14.29,16.26,78.22,78.22,0,0,0-13,44.24c.18,16,1.69,32,3.08,47.95,1.42,16.26,3.06,32.51,4.8,48.75q2.28,21.27,4.82,42.51c0,.38.09.76.14,1.15l6.59-1.73H471.59l2.31.44q3.23-26.52,6-53.1c2.23-21.47,4.33-43,5.77-64.51.7-10.35,1.71-20.94.77-31.3A75.61,75.61,0,0,0,477.63,445a80.76,80.76,0,0,0-18.14-22.71c-1.23-1.06-4-1.24-4.48-3.09-.29-1,.66-1.76,1.42-2.19a17.48,17.48,0,0,1,4.95-1.72l.87-.19,1.4-.29,1.48-.27c-.9.16-.2,0,0,0l1.2-.19c1.12-.17,2.24-.33,3.37-.47l.88-.11c-.2,0-.76.09.17,0l2.09-.22c2.39-.24,5.38-.48,7.4-.59q7.61-.44,15.23-.42a188.55,188.55,0,0,1,29.74,2.09c2,.32,4,.7,5.95,1.17a13.5,13.5,0,0,0,6.14-.57C537.87,415,540.48,414.16,538.7,413.74Z" transform="translate(-94 -183.29)"/><path class="cls-5" d="M174.51,304.64a13.58,13.58,0,0,1,4.94.51,13.2,13.2,0,0,1,4.83,2.47,13.57,13.57,0,0,1,3.62,4.72,15.74,15.74,0,0,1,1.69,5.56,21.07,21.07,0,0,1-.48,5.92,23,23,0,0,1-2.71,6.8,29.41,29.41,0,0,1-6.4,7.27q-4.4,3.8-5.75,4.8a44.76,44.76,0,0,0-3.66,3.17q-2.31,2.16-.84,2.7t12.11.93q10.65.39,11.94-.15c.85-.36.9-.07.14.89s-1.45,1.85-2.08,2.7-2.05,1.66-4.25,2.44-5.81,1.16-10.83,1.16h-13c-3.63,0-6.71,0-9.22-.12s-3.93-.63-4.24-1.66a7.43,7.43,0,0,1-.15-3.48c.22-1.29,1.2-2.27,2.93-2.94a27.45,27.45,0,0,0,6.51-4.1q3.91-3.09,8.71-7.38t8.71-8.31q3.91-4,4.25-6a11.31,11.31,0,0,0,.11-3.44,8.13,8.13,0,0,0-1.21-3.05c-.66-1.06-1.94-1.74-3.84-2.05a7.31,7.31,0,0,0-4.25.23c-.93.47-1.61.56-2.05.27a12.45,12.45,0,0,1-1.42-1.08,4.26,4.26,0,0,1-1.18-2.24,4.73,4.73,0,0,1,.11-2.9,4.92,4.92,0,0,1,2.64-2.36A12.75,12.75,0,0,1,174.51,304.64Z" transform="translate(-94 -183.29)"/><path class="cls-5" d="M216.19,306.42a21.24,21.24,0,0,1,6.37,3.6,27.18,27.18,0,0,1,6.08,6.45,29.22,29.22,0,0,1,3.8,8.51,34,34,0,0,1,1.39,7.81,24.68,24.68,0,0,1-.44,5.57,20.32,20.32,0,0,1-1.53,4.71,21.33,21.33,0,0,1-3.92,5.18,28.8,28.8,0,0,1-6.62,5.14,22.91,22.91,0,0,1-8.82,2.71q-5.1.58-7-.66a38.56,38.56,0,0,1-3.85-2.86,8.58,8.58,0,0,1-2.63-5.1,15.2,15.2,0,0,1,.33-7.19,142.27,142.27,0,0,1,5.56-14.38q4.54-10.68,4.68-11.91a4.34,4.34,0,0,0-.18-2.09c-.22-.57-1-1.11-2.23-1.62s-3.39.69-6.37,3.63-3.15,3-.51.19l6-6.34c1.35-1.41,2.55-2.12,3.63-2.12s1.92,0,2.56-.08A12,12,0,0,1,216.19,306.42Zm2.42,10.9q-1.25-.54-6.26,11.1t-5.56,14.38a11.56,11.56,0,0,0-.41,3.21,5.21,5.21,0,0,0,1,1.43,3.59,3.59,0,0,0,2.19,1.24,24.05,24.05,0,0,0,3,.38q1.62.12,6.7-3.05t6.37-6.42a20.06,20.06,0,0,0,1.43-4.87,19.49,19.49,0,0,0-.55-5,23.38,23.38,0,0,0-2.13-6.1,17.92,17.92,0,0,0-3-4.3A8.27,8.27,0,0,0,218.61,317.32Z" transform="translate(-94 -183.29)"/><path class="cls-5" d="M524.24,306.47a21.08,21.08,0,0,1,6.37,3.59,27,27,0,0,1,6.07,6.46,28.91,28.91,0,0,1,3.81,8.5,34,34,0,0,1,1.39,7.81,25.23,25.23,0,0,1-.44,5.57,20.56,20.56,0,0,1-1.53,4.72A21.52,21.52,0,0,1,536,348.3a29.13,29.13,0,0,1-6.63,5.14,22.63,22.63,0,0,1-8.82,2.7q-5.09.58-7-.65a40.54,40.54,0,0,1-3.84-2.86,8.64,8.64,0,0,1-2.63-5.11,15.33,15.33,0,0,1,.32-7.19A146.83,146.83,0,0,1,513,326q4.53-10.67,4.68-11.91a4.29,4.29,0,0,0-.18-2.08c-.22-.57-1-1.11-2.23-1.63s-3.4.7-6.37,3.64-3.15,3-.51.19,4.62-4.92,6-6.34,2.55-2.13,3.63-2.13,1.92,0,2.56-.08A12.09,12.09,0,0,1,524.24,306.47Zm2.42,10.9q-1.24-.54-6.26,11.09t-5.57,14.39a11.29,11.29,0,0,0-.4,3.2,5.52,5.52,0,0,0,1,1.44,3.69,3.69,0,0,0,2.2,1.23,26,26,0,0,0,3,.39c1.07.08,3.31-.94,6.7-3.06s5.51-4.25,6.37-6.41a19.59,19.59,0,0,0,1.42-4.87,18.54,18.54,0,0,0-.55-5,23.44,23.44,0,0,0-2.12-6.11,17.65,17.65,0,0,0-3-4.29A8.37,8.37,0,0,0,526.66,317.37Z" transform="translate(-94 -183.29)"/><path class="cls-5" d="M482.55,304.69a13.4,13.4,0,0,1,4.95.5,13.2,13.2,0,0,1,4.83,2.47,13.78,13.78,0,0,1,3.62,4.72,15.55,15.55,0,0,1,1.68,5.57,20.57,20.57,0,0,1-.47,5.91,23.32,23.32,0,0,1-2.71,6.81,29.66,29.66,0,0,1-6.41,7.27c-2.92,2.52-4.84,4.12-5.74,4.79a46.84,46.84,0,0,0-3.66,3.17c-1.54,1.44-1.82,2.35-.84,2.71s5,.67,12.11.92,11.08.21,11.93-.15.9-.06.15.89-1.45,1.85-2.09,2.71-2,1.66-4.24,2.43-5.81,1.16-10.84,1.16h-13q-5.46,0-9.22-.12c-2.52-.07-3.93-.63-4.25-1.66a7.57,7.57,0,0,1-.14-3.48c.22-1.29,1.19-2.27,2.92-2.94a27.18,27.18,0,0,0,6.52-4.09q3.91-3.09,8.71-7.39t8.71-8.31q3.92-4,4.25-6a11.32,11.32,0,0,0,.11-3.44,8.17,8.17,0,0,0-1.21-3.06c-.66-1-1.94-1.74-3.85-2a7.18,7.18,0,0,0-4.24.24c-.93.46-1.61.55-2.05.27a14,14,0,0,1-1.43-1.09,4.24,4.24,0,0,1-1.17-2.24,4.66,4.66,0,0,1,.11-2.9,5,5,0,0,1,2.64-2.36A12.74,12.74,0,0,1,482.55,304.69Z" transform="translate(-94 -183.29)"/><path class="cls-6" d="M276.1,394.28a3.47,3.47,0,0,1-.25-.29A3.47,3.47,0,0,0,276.1,394.28Z" transform="translate(-94 -183.29)"/><path class="cls-6" d="M274.56,392.11a4.52,4.52,0,0,1-.25-.49C274.39,391.79,274.47,392,274.56,392.11Z" transform="translate(-94 -183.29)"/><path class="cls-6" d="M275.59,393.66q-.24-.3-.45-.6Q275.35,393.36,275.59,393.66Z" transform="translate(-94 -183.29)"/><path class="cls-6" d="M275,392.82c-.1-.15-.2-.3-.29-.46C274.79,392.52,274.89,392.67,275,392.82Z" transform="translate(-94 -183.29)"/><path class="cls-6" d="M276.62,394.87l-.2-.22Z" transform="translate(-94 -183.29)"/><path class="cls-6" d="M289.46,445.58c-.17-.81-.32-1.61-.43-2.33C289.14,444,289.29,444.81,289.46,445.58Z" transform="translate(-94 -183.29)"/><path class="cls-6" d="M274.2,391.39a6.52,6.52,0,0,1-.29-.73A6.52,6.52,0,0,0,274.2,391.39Z" transform="translate(-94 -183.29)"/><path class="cls-6" d="M277,395.28h0a2.43,2.43,0,0,0,.48.48c-.17-.16-.33-.32-.49-.49Z" transform="translate(-94 -183.29)"/><path class="cls-6" d="M299.39,486.2c.27,1.09.51,2.19.69,3.3,2,12.17.5,24.21-2.18,36.11s-8.34,22.78-14.58,33.26c-7.21,12.12-10.2,25-7.56,39,1.93,10.23,5.63,19.69,12.42,27.8l.64,1.07c5,4.75,9.43,10.24,15,14.13,34,23.64,81.6,14.47,105.76-20.26,12.06-17.33,17.26-37.16,20.13-57.68,2.93-21,1-41.78-2.55-62.46-.5-2.11-1-7.73-1.24-8-.89-.51-3-.71-4.81-1.27-17.22-4-33.75-7.86-50.88-12.21-4.74-1.21-9.26-3.41-13.73-5.47-3.19-1.48-4.35-3.77-3.3-7.68,6.94-25.75,14.92-51.27,18.78-77.8a99.52,99.52,0,0,1,0,11.84c-1.55,21.48-6.14,42.46-11.16,63.35-.88,3.67,0,5.08,3.51,6.25a473.48,473.48,0,0,0,61.86,15.74c2.71.52,6,1.14,8.84,1.59,0-.86-2.34-6.4-2.46-6.7-7.76-20.76-13.68-36.63-21.57-57.35-.3-.79-1.92-1.55-2.92-1.55a81.86,81.86,0,0,0-9.51.68c-8.13,1-16.25,2.14-25.27,3.33.8-7.34,1.3-14.76,2.45-22.09,2.18-13.89,6.11-27.67,2.27-42a35.59,35.59,0,0,1,3.35,7.51c2.84,9.49,2.14,19.16,1.23,28.83-.58,6.21-1.11,12.43-1.65,18.53l47.6-3.52-15-38.36c-8,2.59-15.48,5-23.81,4.05-.69-15.53-1.53-30.89-6.05-45.79A143,143,0,0,1,390,353.05c1.5,7.13,2.2,14.41,3.29,21.9,11.82-1.18,21.94-6.62,33-9.95-1.81-4.11-3.47-7.82-5.09-11.55-5.57-12.84-10.45-26-18.65-37.59-8.58-12.11-19.84-20.58-34.47-24-6.75-1.56-13.76-2-20.65-3-.17.34-.33.68-.49,1,3.75,6.15,4.95,12.39,1,19.81-1.91-9.51-4.9-17.41-13.31-22.64,2.26,9.12-.23,16.94-4.06,25.24-3.38-8,1.11-16.16-2.59-24.33l-10,12.68c.17-1.89.26-2.85.34-3.82l-1-.74c-4,4.17-8.18,8.19-11.94,12.56-2.43,2.82-4.07,6.29-6.38,9.23-4.61,5.87-10.27,10.46-18,11.38-3.27.39-7.1-1.59-9.69.14s-3.14,6-3.14,6a32.48,32.48,0,0,0-.57,7.11c.25,4.15,1.39,7.3,3.09,11.39.67,1.61,1.37,4.26,5.65,3.77,4.89-.55,7.65-1.91,12.48-2.87,2.64-.52,5.21-1.52,7.87-1.85a7,7,0,0,1,7.32,3.84c5.39,9.33.45,19.25-10.24,20.44-1.74.19-3.52,0-5.28.1a96.82,96.82,0,0,0-10.52.78,4.32,4.32,0,0,0-2.77,2.8,30.27,30.27,0,0,0-.74,5.26,12.86,12.86,0,0,0,3.81,10.29c-.18-.18-.36-.36-.53-.55,4.68,3.22,19.36-6.3,21.7,4.26.41,1.88.67,3.24.8,4.34l-2.08,3.58c3.27-5.65,6.73-11.34,8.91-17.42,6.76-18.89,13-37.95,19.31-57,2.34-7,4.37-14.18,6.54-21.28a211.67,211.67,0,0,1-6.51,43.81c-5.18,21-12.11,41.32-25.09,59.26a50.56,50.56,0,0,0-9.78,24.58c-.37,3.59.27,11,.79,14.79-.28.07-1.44-3.5-1.44-3.5s-.41-1.52-.86-3.43c.85,10.39,1.46,16.08,4.18,23.82.51,1.45,1.23,3,2,4.74l0-.09A80.08,80.08,0,0,1,299.39,486.2Zm4.47,129.49c-1.81.42-3.3.72-4.76,1.09-4.55,1.17-5.69,2.81-5.49,7.5a19.74,19.74,0,0,1-.42,3.3c-.22-.36-.43-.72-.64-1.08-2.09-8.93-1.76-9.66,6-13.34.17-.08.24-.37.36-.56-1.42-7.91.29-11.83,6.08-13.11C298.7,604.57,301.79,610.14,303.86,615.69Zm8.52,21.54c-6.77-5.67-6.66-9.78.08-17.61-4-8.09-3.76-12.33,1.58-16.62-3.86,7.53-.17,12.51,4.09,17.24C309.06,628.51,309.06,628.51,312.38,637.23Zm24.86,6.12c-2.72-1.93-5.3-3.88-6.7-6.46-2.22-4.09-.05-8,1.91-11.66-6.56-6.86-7.86-12.07-4.33-16.86.93,9,1.31,9.58,10.06,16.06C332.53,630.47,330.5,636.65,337.24,643.35Zm17-11.93c-4-.93-8-2.59-9.08-6.71-.95-3.64-.41-7.66-.53-11.69-7.54-3.17-10.17-9.47-6.15-15.51-1.28,8.36,1.27,13.21,10.22,12.77-.19,4.38-1.29,8.77-.33,12.66,1.21,4.92,6.59,4.71,11.13,5.59-3.51,8-.68,13.65,6.65,17.59C357.9,644.81,355.38,641.61,354.25,631.42Zm27.25-15.48a4.18,4.18,0,0,0-3.28-1.41c-5.21.32-9.68-1.08-12.56-5.5-1.56-2.38-2.34-5.26-3.61-8.23-8.62.51-14.33-4.22-14.12-10.72,1.83,2,3.84,5,6.58,7,3.43,2.53,7.12.73,10.47-1.24,2.19,13.83,6.72,16.85,18.75,13.52.75,9,6.68,12.69,15,13.77C390.39,625,385.7,622.86,381.5,615.94Zm13.07-24c-10.17,4-14.24,2.51-21.26-7.73-8.89,2.72-15.32.06-16.83-6,2.36,1.37,5.2,3.67,8.46,4.74,4,1.31,7-1.53,8.75-3.57,3.31,3.57,5.85,7.53,9.47,9.88,4.58,3,8.84-.64,13.07-3.1,3.38,8.42,9.94,10.39,19.07,8.75C407.35,599.62,402.67,598.76,394.57,591.91Zm-34.72-68c9.75,4.69,14,2.41,17.06-4,4,2.1,7.85,5.07,12.14,6.08,5.25,1.24,8.2-3.39,11.21-7.29,6.38,7.18,13.43,6.6,20.86,2.05-5.26,7-11.61,8.1-20.4,3.81-3.08,3.15-6.72,6.07-11.33,5.18-4.08-.79-7.89-2.92-12.27-4.62C371.31,529.85,364.12,529.62,359.85,523.91Zm41.6,46.25c-3.56,2.7-7.75,4.7-12.07,3.07-3.86-1.46-7.18-4.33-11-6.78-6.41,4-14.86,2-16.46-3.35,2.6.94,5.73,2.7,9,3.12,4,.51,6.55-2.46,8.46-5.77,10.27,11.87,12.88,12.31,22.82,3.78,4.39,7.62,11.17,8.74,19.88,5.81C415.33,575.83,410.34,575.69,401.45,570.16Zm2.61-24.52c-8.75,7.22-13.11,7.2-22.81-.29-6.79,5.74-15.28,5.16-18.57-1.14,8.41,5.3,12.22,4.42,18-4.18,7.33,7.84,15.92,9.23,22.58,0,8.07,5.62,8.07,5.62,20.8,2.3C418.59,548.8,413,549.74,404.06,545.64ZM360.63,499c9.47,9.19,12.92,9.18,22.13-.77,7.44,7.92,14.78,5.5,21.86-.66,5.8,3.23,11.39,6.72,18,1.92-1.37,1.45-2.89,3.12-4.48,3.37-3.68.56-5.62.56-10.64-.76-1.13-.3-2.74-.58-3.45,0-6.57,5.1-13.37,6.72-20.73,1.72-3.3,3.39-7,6.24-11.58,5.31-4.07-.83-7.85-3-12.11-4.76-5.86,5.6-13.64,5.24-17-.45,2.73.56,6.54,2.44,9.68,1.66S357.81,501.32,360.63,499Zm-11.72-80.86c-1.43-14.31.9-27.8,4-41.28C356.27,362,359.33,347,362.25,332c1.43-7.4,2.24-14.91,3.38-22.71a4.56,4.56,0,0,1,.46.89q.15,1.4.24,2.79c1.52,23.14-1.54,45.82-6.69,68.34-3.25,14.24-5.81,28.61-2.91,43.3.06.28-.2.62-.35,1-16.1-2.27-32.18-4.79-48.24,0C320.58,417.86,334.7,418.26,348.91,418.12Zm-38.64,50.39A93.16,93.16,0,0,1,309,456.39c-.46-8.54.63-18.38,1.4-21.21.63-2.3,2.92-8.08,3.3-8-.38,3.58-.92,8.71-1.25,12.29-1.72,18.82,1.92,36.2,13.91,51.4q4.67,5.93,8.91,12.18c9.91,14.55,17.62,30.11,19.89,47.71,2.52,19.56-7.2,37.86-23.86,46.22-15.37,7.71-30.73,1.67-37.72-11.19-5-9.11-4.15-15.63-2.92-22.7s7.84-13.81,18.13-17.66c4.06-1.52,8.32-2.52,12.47-3.82a5.88,5.88,0,0,0,2.74-1.37c4.55-5.52,4.15-16.05-1.77-20-4.75-3.18-5.25-6.71-4.37-11.39a20.86,20.86,0,0,0,.23-2.09c.73-8.34-.64-10.38-8.69-13-.3-.1-2.32-.4-2.55-.57,2-19.48.83-28.13-11.61-36.52C303.81,458.94,308.09,463.86,310.27,468.51Z" transform="translate(-94 -183.29)"/><path class="cls-6" d="M296.15,476.53c3.58,12.93,1.74,25.54-1.34,38.11C297.89,502.07,299.73,489.46,296.15,476.53Z" transform="translate(-94 -183.29)"/><path d="M274.7,392.36l-.14-.25Z" transform="translate(-94 -183.29)"/><path d="M275.14,393.06l-.15-.24Z" transform="translate(-94 -183.29)"/><path d="M274.31,391.62a1.63,1.63,0,0,1-.11-.23A1.63,1.63,0,0,0,274.31,391.62Z" transform="translate(-94 -183.29)"/><path d="M294.18,517.15l.63-2.51Z" transform="translate(-94 -183.29)"/><path d="M275.85,394l-.26-.33Z" transform="translate(-94 -183.29)"/><path d="M277.49,395.76c.23.24.48.47.72.7-.24-.22-.47-.45-.7-.68Z" transform="translate(-94 -183.29)"/><path d="M277,395.27l-.38-.4Z" transform="translate(-94 -183.29)"/><path d="M276.42,394.65c-.11-.12-.22-.24-.32-.37C276.2,394.41,276.31,394.53,276.42,394.65Z" transform="translate(-94 -183.29)"/><path d="M296.14,476.48v0Z" transform="translate(-94 -183.29)"/><path class="cls-7" d="M431.94,495.63c-.13-.77-.21-1.55-.34-2.49l11.64.15c-2.93-13.25-8-25.16-13.13-37.05s-10.36-23.42-15.6-35.21l22.34-4.1-19.28-44.28,16.39-4.4c-7.37-16.63-13.92-33.63-22.26-49.73-12.62-24.35-34-35.59-61.28-36.25-7.39-.18-8.48-1.88-15.88-1.67-.91,0-7.89,1.51-11.32,3.34A101.93,101.93,0,0,0,309.48,294c-4.62,4-8.2,9.19-12.2,13.89-3.17,3.73-5.94,7.85-9.49,11.18-3.75,3.51-5.26,4.18-10.19,3.85-2.44-.16-7.91-.19-10.21.94-2.69,1.3-4.92,5.61-5.88,10-1.08,4.87-.21,7.66-.32,9.86,1.35,7.37,1.49,8.05,4.3,13.62,1,2,1.49,5.21,6.38,5.79,7.4.54,13.39-2.42,19.89-4.31,6-1.76,7.58-1.92,9,1.45,2.38,5.55.92,11-3.86,12.87-2.45,1-5.26,1.08-7.92,1.39-3.39.41-6.83.4-10.17,1-5,.87-5.67,1.59-5.8,6.57a25.33,25.33,0,0,0,.87,8.62,6.52,6.52,0,0,0,.29.73,1.63,1.63,0,0,0,.11.23,4.52,4.52,0,0,0,.25.49l.14.25c.09.16.19.31.29.46l.15.24q.21.3.45.6l.26.33a3.47,3.47,0,0,0,.25.29c.1.13.21.25.32.37l.2.22.38.4c.16.17.32.33.49.49l0,0c.23.23.46.46.7.68a12.86,12.86,0,0,1-3.81-10.29,30.27,30.27,0,0,1,.74-5.26,4.32,4.32,0,0,1,2.77-2.8,96.82,96.82,0,0,1,10.52-.78c1.76-.09,3.54.09,5.28-.1C304.4,376,309.34,366.12,304,356.79a7,7,0,0,0-7.32-3.84c-2.66.33-5.23,1.33-7.87,1.85-4.83,1-7.59,2.32-12.48,2.87-4.28.49-5-2.16-5.65-3.77-1.7-4.09-2.84-7.24-3.09-11.39a32.48,32.48,0,0,1,.57-7.11s.55-4.26,3.14-6,6.42.25,9.69-.14c7.71-.92,13.37-5.51,18-11.38,2.31-2.94,3.95-6.41,6.38-9.23,3.76-4.37,7.94-8.39,11.94-12.56l1,.74c-.08,1-.17,1.93-.34,3.82l10-12.68c3.7,8.17-.79,16.3,2.59,24.33,3.83-8.3,6.32-16.12,4.06-25.24,8.41,5.23,11.4,13.13,13.31,22.64,4-7.42,2.77-13.66-1-19.81.16-.34.32-.68.49-1,6.89,1,13.9,1.46,20.65,3,14.63,3.38,25.89,11.85,34.47,24,8.2,11.57,13.08,24.75,18.65,37.59,1.62,3.73,3.28,7.44,5.09,11.55-11,3.33-21.13,8.77-33,9.95-1.09-7.49-1.79-14.77-3.29-21.9a143,143,0,0,0-6.31-20.67c4.52,14.9,5.36,30.26,6.05,45.79,8.33,1,15.81-1.46,23.81-4.05l15,38.36L381,416c.54-6.1,1.07-12.32,1.65-18.53.91-9.67,1.61-19.34-1.23-28.83a35.59,35.59,0,0,0-3.35-7.51c3.84,14.31-.09,28.09-2.27,42-1.15,7.33-1.65,14.75-2.45,22.09,9-1.19,17.14-2.32,25.27-3.33a81.86,81.86,0,0,1,9.51-.68c1,0,2.62.76,2.92,1.55,7.89,20.72,13.81,36.59,21.57,57.35.12.3,2.43,5.84,2.46,6.7-2.83-.45-6.13-1.07-8.84-1.59a473.48,473.48,0,0,1-61.86-15.74c-3.47-1.17-4.39-2.58-3.51-6.25,5-20.89,9.61-41.87,11.16-63.35A99.52,99.52,0,0,0,372,388c-3.86,26.53-11.84,52.05-18.78,77.8-1,3.91.11,6.2,3.3,7.68,4.47,2.06,9,4.26,13.73,5.47,17.13,4.35,33.66,8.18,50.88,12.21,1.77.56,3.92.76,4.81,1.27.2.25.74,5.87,1.24,8,3.53,20.68,5.48,41.45,2.55,62.46-2.87,20.52-8.07,40.35-20.13,57.68-24.16,34.73-71.78,43.9-105.76,20.26-5.58-3.89-10-9.38-15-14.13l-.64-1.07c-6.79-8.11-10.49-17.57-12.42-27.8-2.64-14,.35-26.84,7.56-39,6.24-10.48,11.87-21.27,14.58-33.26s4.22-23.94,2.18-36.11c-.18-1.11-.42-2.21-.69-3.3a80.08,80.08,0,0,0-3.28-9.81l0,.09h0v0c3.58,12.93,1.58,25.54-1.51,38.11-.2.83-.25,1.67-.46,2.51A157.14,157.14,0,0,1,276.87,558c-9.87,16.71-10.8,34.48-4.07,52.29,10.93,28.91,32.73,45.14,63.27,49,37.93,4.8,72.73-16.24,88-52.06,11.38-26.71,15.06-54.58,12.34-83.28C435.52,514.44,433.46,505.06,431.94,495.63Z" transform="translate(-94 -183.29)"/><path class="cls-8" d="M306.86,493.13c.23.17,2.25.47,2.55.57,8,2.64,9.42,4.68,8.69,13a20.86,20.86,0,0,1-.23,2.09c-.88,4.68-.38,8.21,4.37,11.39,5.92,4,6.32,14.49,1.77,20a5.88,5.88,0,0,1-2.74,1.37c-4.15,1.3-8.41,2.3-12.47,3.82-10.29,3.85-16.91,10.6-18.13,17.66s-2,13.59,2.92,22.7c7,12.86,22.35,18.9,37.72,11.19,16.66-8.36,26.38-26.66,23.86-46.22-2.27-17.6-10-33.16-19.89-47.71q-4.25-6.24-8.91-12.18c-12-15.2-15.63-32.58-13.91-51.4.33-3.58.87-8.71,1.25-12.29-.38,0-2.67,5.73-3.3,8-.77,2.83-1.86,12.67-1.4,21.21a93.16,93.16,0,0,0,1.26,12.12,25.36,25.36,0,0,1,2.13,7.76c1.87,5,4.77,10.09,9.44,16.55,5.77,8.78,11.76,17.52,16.44,26.87,4.77,9.56,8.71,19.61,10.11,30.43,2.11,16.31-4.48,32.51-19.76,39.93-14.83,6.44-25.21-4.24-28.24-10.16a20,20,0,0,1-1.73-15.14c1.51-5.47,4.29-9.19,9.49-11.59a86.55,86.55,0,0,1,14.53-5.31c4.39-1.14,6.65-3.62,8.13-7.69,3.51-9.71,1.88-19.75-7-25.54-.82-.53-1.28-2.07-1.35-3.18-.19-3.14.06-6.31-.15-9.44-.34-5-2.66-8.74-7.63-10.28-2.2-.69-2.8-1-2.64-2.27a44.36,44.36,0,0,0,.54-10.61c0-.47-.08-1.38-.22-2.57a45.25,45.25,0,0,1-2.13-7.76c-2.18-4.65-6.46-9.57-15-11.9C307.69,465,308.83,473.65,306.86,493.13Z" transform="translate(-94 -183.29)"/><path class="cls-9" d="M310.27,468.51a45.25,45.25,0,0,0,2.13,7.76A25.36,25.36,0,0,0,310.27,468.51Z" transform="translate(-94 -183.29)"/><path class="cls-10" d="M356.38,425.64c.15-.41.41-.75.35-1-2.9-14.69-.34-29.06,2.91-43.3,5.15-22.52,8.21-45.2,6.69-68.34q-.09-1.39-.24-2.79a4.56,4.56,0,0,0-.46-.89c-1.14,7.8-1.95,15.31-3.38,22.71-2.92,15-6,29.95-9.37,44.84-3.07,13.48-5.4,27-4,41.28-14.21.14-28.33-.26-40.77,7.55C324.2,420.85,340.28,423.37,356.38,425.64Z" transform="translate(-94 -183.29)"/><path d="M289,443.25c0-.32-.1-.65-.13-1C288.93,442.57,289,442.9,289,443.25Z" transform="translate(-94 -183.29)"/><path d="M289.46,445.58c.16.79.34,1.59.51,2.34,0-.06,0-.12,0-.18C289.78,447,289.61,446.3,289.46,445.58Z" transform="translate(-94 -183.29)"/><path class="cls-11" d="M292.27,454.85c-.52-3.8-1.16-11.2-.79-14.79a50.56,50.56,0,0,1,9.78-24.58c13-17.94,19.91-38.21,25.09-59.26a211.67,211.67,0,0,0,6.51-43.81c-2.17,7.1-4.2,14.24-6.54,21.28-6.32,19-12.55,38.09-19.31,57-2.18,6.08-5.64,11.77-8.91,17.42-.29.49-.57,1-.85,1.48-5.71,10.17-9.6,20.77-8.35,32.7,0,.33.08.66.13,1,.11.72.26,1.52.43,2.33s.32,1.44.5,2.16c0,.06,0,.12,0,.18.45,1.91.86,3.43.86,3.43S292,454.92,292.27,454.85Z" transform="translate(-94 -183.29)"/><path class="cls-12" d="M342.58,503.87c3.37,5.69,11.15,6.05,17,.45,4.26,1.74,8,3.93,12.11,4.76,4.6.93,8.28-1.92,11.58-5.31,7.36,5,14.16,3.38,20.73-1.72.71-.55,2.32-.27,3.45,0,5,1.32,7,1.32,10.64.76,1.59-.25,3.11-1.92,4.48-3.37-6.57,4.8-12.16,1.31-18-1.92-7.08,6.16-14.42,8.58-21.86.66-9.21,10-12.66,10-22.13.77-2.82,2.34-5.26,5.78-8.37,6.55S345.31,504.43,342.58,503.87Z" transform="translate(-94 -183.29)"/><path class="cls-13" d="M403.29,540c-6.66,9.23-15.25,7.84-22.58,0-5.81,8.6-9.62,9.48-18,4.18,3.29,6.3,11.78,6.88,18.57,1.14,9.7,7.49,14.06,7.51,22.81.29,8.89,4.1,14.53,3.16,20-3.31C411.36,545.65,411.36,545.65,403.29,540Z" transform="translate(-94 -183.29)"/><path class="cls-14" d="M377.12,525.09c4.38,1.7,8.19,3.83,12.27,4.62,4.61.89,8.25-2,11.33-5.18,8.79,4.29,15.14,3.18,20.4-3.81-7.43,4.55-14.48,5.13-20.86-2.05-3,3.9-6,8.53-11.21,7.29-4.29-1-8.12-4-12.14-6.08-3.1,6.44-7.31,8.72-17.06,4C364.12,529.62,371.31,529.85,377.12,525.09Z" transform="translate(-94 -183.29)"/><path class="cls-15" d="M383.73,609.4c-12,3.33-16.56.31-18.75-13.52-3.35,2-7,3.77-10.47,1.24-2.74-2-4.75-5-6.58-7-.21,6.5,5.5,11.23,14.12,10.72,1.27,3,2.05,5.85,3.61,8.23,2.88,4.42,7.35,5.82,12.56,5.5a4.18,4.18,0,0,1,3.28,1.41c4.2,6.92,8.89,9.06,17.28,7.23C390.41,622.09,384.48,618.39,383.73,609.4Z" transform="translate(-94 -183.29)"/><path class="cls-16" d="M402.2,564.23c-9.94,8.53-12.55,8.09-22.82-3.78-1.91,3.31-4.49,6.28-8.46,5.77-3.31-.42-6.44-2.18-9-3.12,1.6,5.37,10.05,7.31,16.46,3.35,3.86,2.45,7.18,5.32,11,6.78,4.32,1.63,8.51-.37,12.07-3.07,8.89,5.53,13.88,5.67,20.63-.12C413.37,573,406.59,571.85,402.2,564.23Z" transform="translate(-94 -183.29)"/><path class="cls-17" d="M396.23,586.15c-4.23,2.46-8.49,6.09-13.07,3.1-3.62-2.35-6.16-6.31-9.47-9.88-1.78,2-4.78,4.88-8.75,3.57-3.26-1.07-6.1-3.37-8.46-4.74,1.51,6,7.94,8.7,16.83,6,7,10.24,11.09,11.72,21.26,7.73,8.1,6.85,12.78,7.71,20.73,3C406.17,596.54,399.61,594.57,396.23,586.15Z" transform="translate(-94 -183.29)"/><path class="cls-18" d="M359.51,628.53c-4.54-.88-9.92-.67-11.13-5.59-1-3.89.14-8.28.33-12.66-8.95.44-11.5-4.41-10.22-12.77-4,6-1.39,12.34,6.15,15.51.12,4-.42,8.05.53,11.69,1.09,4.12,5.12,5.78,9.08,6.71,1.13,10.19,3.65,13.39,11.91,14.7C358.83,642.18,356,636.54,359.51,628.53Z" transform="translate(-94 -183.29)"/><path class="cls-19" d="M328.12,608.37c-3.53,4.79-2.23,10,4.33,16.86-2,3.61-4.13,7.57-1.91,11.66,1.4,2.58,4,4.53,6.7,6.46-6.74-6.7-4.71-12.88.94-18.92C329.43,618,329.05,617.32,328.12,608.37Z" transform="translate(-94 -183.29)"/><path class="cls-20" d="M314,603c-5.34,4.29-5.54,8.53-1.58,16.62-6.74,7.83-6.85,11.94-.08,17.61-3.32-8.72-3.32-8.72,5.75-17C313.87,615.51,310.18,610.53,314,603Z" transform="translate(-94 -183.29)"/><path class="cls-21" d="M298.87,612.6c-.12.19-.19.48-.36.56-7.72,3.68-8.05,4.41-6,13.34.21.36.42.72.64,1.08a19.74,19.74,0,0,0,.42-3.3c-.2-4.69.94-6.33,5.49-7.5,1.46-.37,2.95-.67,4.76-1.09-2.07-5.55-5.16-11.12,1.09-16.2C299.16,600.77,297.45,604.69,298.87,612.6Z" transform="translate(-94 -183.29)"/><path class="cls-22" d="M322,323.37c-6.2-3-14.62,2.81-20.42,4.33C310.33,309,328.13,326.38,322,323.37Z" transform="translate(-94 -183.29)"/></svg>