<svg viewBox="0 0 10000 10000" xmlns="http://www.w3.org/2000/svg">
<path d="M0,0 l10000,0 l0,10000 l-10000,0 z" fill="white"/>
<path d="M0,0 l4473,0 l0,1446 l-4473,0 z" fill="#fe00ff" stroke="black" stroke-width="5"/>
<path d="M4634,5915 l2353,0 l0,1981 l-2353,0 z" fill="#fe00ff" stroke="black" stroke-width="5"/>
<path d="M4473,0 l3402,0 l0,577 l-3402,0 z" fill="#fe00ff" stroke="black" stroke-width="5"/>
<path d="M5260,2633 l1014,0 l0,672 l-1014,0 z" fill="#fe00ff" stroke="black" stroke-width="5"/>
<path d="M6274,2722 l898,0 l0,1025 l-898,0 z" fill="#fe00ff" stroke="black" stroke-width="5"/>
<path d="M3174,1446 l2064,0 l0,1205 l-2064,0 z" fill="#fe00ff" stroke="black" stroke-width="5"/>
<path d="M7522,9161 l663,0 l0,663 l-663,0 z" fill="#fe00ff" stroke="black" stroke-width="5"/>
<path d="M7875,0 l579,0 l0,1012 l-579,0 z" fill="#fe00ff" stroke="black" stroke-width="5"/>
<path d="M8376,4388 l1344,0 l0,1343 l-1344,0 z" fill="#fe00ff" stroke="black" stroke-width="5"/>
<path d="M6890,8668 l632,0 l0,805 l-632,0 z" fill="#fe00ff" stroke="black" stroke-width="5"/>
<path d="M7172,1815 l1143,0 l0,1363 l-1143,0 z" fill="#fe00ff" stroke="black" stroke-width="5"/>
<path d="M0,4072 l1185,0 l0,1526 l-1185,0 z" fill="#fe00ff" stroke="black" stroke-width="5"/>
<path d="M7071,4016 l187,0 l0,187 l-187,0 z" fill="#fe00ff" stroke="black" stroke-width="5"/>
<path d="M5238,2124 l266,0 l0,294 l-266,0 z" fill="#fe00ff" stroke="black" stroke-width="5"/>
<path d="M4565,577 l1393,0 l0,697 l-1393,0 z" fill="#fe00ff" stroke="black" stroke-width="5"/>
<path d="M2862,4541 l1368,0 l0,1368 l-1368,0 z" fill="#fe00ff" stroke="black" stroke-width="5"/>
<path d="M4582,3302 l170,0 l0,169 l-170,0 z" fill="#fe00ff" stroke="black" stroke-width="5"/>
<path d="M3348,7896 l4701,0 l0,704 l-4701,0 z" fill="#fe00ff" stroke="black" stroke-width="5"/>
<path d="M1351,9255 l2334,0 l0,745 l-2334,0 z" fill="#fe00ff" stroke="black" stroke-width="5"/>
<path d="M8713,3624 l578,0 l0,578 l-578,0 z" fill="#fe00ff" stroke="black" stroke-width="5"/>
<path d="M8185,8373 l964,0 l0,1148 l-964,0 z" fill="#fe00ff" stroke="black" stroke-width="5"/>
<path d="M2480,1446 l694,0 l0,965 l-694,0 z" fill="#fe00ff" stroke="black" stroke-width="5"/>
<path d="M6105,4203 l1718,0 l0,1221 l-1718,0 z" fill="#fe00ff" stroke="black" stroke-width="5"/>
<path d="M8049,5731 l526,0 l0,2642 l-526,0 z" fill="#e600ff" stroke="black" stroke-width="5"/>
<path d="M7823,3178 l890,0 l0,1210 l-890,0 z" fill="#2300ff" stroke="black" stroke-width="5"/>
<path d="M2410,8600 l1490,0 l0,655 l-1490,0 z" fill="#fe00ff" stroke="black" stroke-width="5"/>
<path d="M7823,4388 l553,0 l0,1343 l-553,0 z" fill="#e300ff" stroke="black" stroke-width="5"/>
<path d="M8969,0 l964,0 l0,591 l-964,0 z" fill="#fe00ff" stroke="black" stroke-width="5"/>
<path d="M6581,940 l900,0 l0,875 l-900,0 z" fill="#fe00ff" stroke="black" stroke-width="5"/>
<path d="M1356,1852 l971,0 l0,970 l-971,0 z" fill="#fe00ff" stroke="black" stroke-width="5"/>
<path d="M0,7805 l635,0 l0,1118 l-635,0 z" fill="#fe00ff" stroke="black" stroke-width="5"/>
<path d="M1286,3376 l3296,0 l0,1165 l-3296,0 z" fill="#fe00ff" stroke="black" stroke-width="5"/>
<path d="M3900,8600 l1891,0 l0,1400 l-1891,0 z" fill="#f900ff" stroke="black" stroke-width="5"/>
<path d="M4752,3305 l1522,0 l0,898 l-1522,0 z" fill="#f800ff" stroke="black" stroke-width="5"/>
<path d="M4582,4203 l1523,0 l0,1712 l-1523,0 z" fill="#5d00ff" stroke="black" stroke-width="5"/>
<path d="M2287,6208 l2347,0 l0,1688 l-2347,0 z" fill="#fe00ff" stroke="black" stroke-width="5"/>
<path d="M8575,7179 l1425,0 l0,1194 l-1425,0 z" fill="#7100ff" stroke="black" stroke-width="5"/>
<path d="M849,3449 l437,0 l0,581 l-437,0 z" fill="#fe00ff" stroke="black" stroke-width="5"/>
<path d="M0,6812 l652,0 l0,993 l-652,0 z" fill="#fe00ff" stroke="black" stroke-width="5"/>
<path d="M0,4030 l1286,0 l0,42 l-1286,0 z" fill="#0000ff" stroke="black" stroke-width="5"/>
<path d="M8575,6182 l1222,0 l0,997 l-1222,0 z" fill="#fe00ff" stroke="black" stroke-width="5"/>
<path d="M4313,5915 l321,0 l0,293 l-321,0 z" fill="#0c00ff" stroke="black" stroke-width="5"/>
<path d="M2327,2651 l2255,0 l0,725 l-2255,0 z" fill="#a900ff" stroke="black" stroke-width="5"/>
<path d="M4752,2651 l508,0 l0,654 l-508,0 z" fill="#3a00ff" stroke="black" stroke-width="5"/>
<path d="M0,1446 l2480,0 l0,406 l-2480,0 z" fill="#0c00ff" stroke="black" stroke-width="5"/>
<path d="M635,7896 l2713,0 l0,704 l-2713,0 z" fill="#2600ff" stroke="black" stroke-width="5"/>
<path d="M5791,8600 l1099,0 l0,1400 l-1099,0 z" fill="#5500ff" stroke="black" stroke-width="5"/>
<path d="M7522,8600 l663,0 l0,561 l-663,0 z" fill="#0700ff" stroke="black" stroke-width="5"/>
<path d="M2188,9146 l218,0 l0,109 l-218,0 z" fill="#fe00ff" stroke="black" stroke-width="5"/>
<path d="M3671,5909 l642,0 l0,299 l-642,0 z" fill="#fe00ff" stroke="black" stroke-width="5"/>
<path d="M1879,330 l60,0 l0,60 l-60,0 z" fill="green"/>
<path d="M1909,360 l327.5,363" stroke="black" stroke-width="5"/>
<path d="M5780,7061 l60,0 l0,60 l-60,0 z" fill="green"/>
<path d="M5810,7091 l0.5,-185.5" stroke="black" stroke-width="5"/>
<path d="M5377,392 l60,0 l0,60 l-60,0 z" fill="green"/>
<path d="M5407,422 l767,-133.5" stroke="black" stroke-width="5"/>
<path d="M5737,3110 l60,0 l0,60 l-60,0 z" fill="green"/>
<path d="M5767,3140 l0,-171" stroke="black" stroke-width="5"/>
<path d="M6629,3204 l60,0 l0,60 l-60,0 z" fill="green"/>
<path d="M6659,3234 l64,0.5" stroke="black" stroke-width="5"/>
<path d="M4176,1590 l60,0 l0,60 l-60,0 z" fill="green"/>
<path d="M4206,1620 l0,428.5" stroke="black" stroke-width="5"/>
<path d="M7823,9462 l60,0 l0,60 l-60,0 z" fill="green"/>
<path d="M7853,9492 l0.5,0.5" stroke="black" stroke-width="5"/>
<path d="M7845,402 l60,0 l0,60 l-60,0 z" fill="green"/>
<path d="M7875,432 l289.5,74" stroke="black" stroke-width="5"/>
<path d="M9018,5029 l60,0 l0,60 l-60,0 z" fill="green"/>
<path d="M9048,5059 l0,0.5" stroke="black" stroke-width="5"/>
<path d="M7262,9040 l60,0 l0,60 l-60,0 z" fill="green"/>
<path d="M7292,9070 l-86,0.5" stroke="black" stroke-width="5"/>
<path d="M7603,2466 l60,0 l0,60 l-60,0 z" fill="green"/>
<path d="M7633,2496 l110.5,0.5" stroke="black" stroke-width="5"/>
<path d="M391,4805 l60,0 l0,60 l-60,0 z" fill="green"/>
<path d="M421,4835 l171.5,0" stroke="black" stroke-width="5"/>
<path d="M7134,4079 l60,0 l0,60 l-60,0 z" fill="green"/>
<path d="M7164,4109 l0.5,0.5" stroke="black" stroke-width="5"/>
<path d="M5326,2241 l60,0 l0,60 l-60,0 z" fill="green"/>
<path d="M5356,2271 l15,0" stroke="black" stroke-width="5"/>
<path d="M5231,547 l60,0 l0,60 l-60,0 z" fill="green"/>
<path d="M5261,577 l0.5,348.5" stroke="black" stroke-width="5"/>
<path d="M3516,5195 l60,0 l0,60 l-60,0 z" fill="green"/>
<path d="M3546,5225 l0,0" stroke="black" stroke-width="5"/>
<path d="M4637,3356 l60,0 l0,60 l-60,0 z" fill="green"/>
<path d="M4667,3386 l0,0.5" stroke="black" stroke-width="5"/>
<path d="M5566,7866 l60,0 l0,60 l-60,0 z" fill="green"/>
<path d="M5596,7896 l102.5,352" stroke="black" stroke-width="5"/>
<path d="M2488,9783 l60,0 l0,60 l-60,0 z" fill="green"/>
<path d="M2518,9813 l0,-185.5" stroke="black" stroke-width="5"/>
<path d="M8972,3883 l60,0 l0,60 l-60,0 z" fill="green"/>
<path d="M9002,3913 l0,0" stroke="black" stroke-width="5"/>
<path d="M8544,8917 l60,0 l0,60 l-60,0 z" fill="green"/>
<path d="M8574,8947 l93,0" stroke="black" stroke-width="5"/>
<path d="M3088,1743 l60,0 l0,60 l-60,0 z" fill="green"/>
<path d="M3118,1773 l-291,155.5" stroke="black" stroke-width="5"/>
<path d="M7110,4358 l60,0 l0,60 l-60,0 z" fill="green"/>
<path d="M7140,4388 l-176,425.5" stroke="black" stroke-width="5"/>
<path d="M8514,8166 l60,0 l0,60 l-60,0 z" fill="green"/>
<path d="M8544,8196 l-232,-1144" stroke="black" stroke-width="5"/>
<path d="M8547,4307 l60,0 l0,60 l-60,0 z" fill="green"/>
<path d="M8577,4337 l-309,-554" stroke="black" stroke-width="5"/>
<path d="M3125,9138 l60,0 l0,60 l-60,0 z" fill="green"/>
<path d="M3155,9168 l0,-240.5" stroke="black" stroke-width="5"/>
<path d="M7793,4374 l60,0 l0,60 l-60,0 z" fill="green"/>
<path d="M7823,4404 l276.5,655.5" stroke="black" stroke-width="5"/>
<path d="M9421,80 l60,0 l0,60 l-60,0 z" fill="green"/>
<path d="M9451,110 l0,185.5" stroke="black" stroke-width="5"/>
<path d="M7001,1359 l60,0 l0,60 l-60,0 z" fill="green"/>
<path d="M7031,1389 l0,-11.5" stroke="black" stroke-width="5"/>
<path d="M1811,2307 l60,0 l0,60 l-60,0 z" fill="green"/>
<path d="M1841,2337 l0.5,0" stroke="black" stroke-width="5"/>
<path d="M46,8334 l60,0 l0,60 l-60,0 z" fill="green"/>
<path d="M76,8364 l241.5,0" stroke="black" stroke-width="5"/>
<path d="M3513,3901 l60,0 l0,60 l-60,0 z" fill="green"/>
<path d="M3543,3931 l-609,27.5" stroke="black" stroke-width="5"/>
<path d="M3897,8798 l60,0 l0,60 l-60,0 z" fill="green"/>
<path d="M3927,8828 l918.5,472" stroke="black" stroke-width="5"/>
<path d="M5641,3275 l60,0 l0,60 l-60,0 z" fill="green"/>
<path d="M5671,3305 l-158,449" stroke="black" stroke-width="5"/>
<path d="M5512,4557 l60,0 l0,60 l-60,0 z" fill="green"/>
<path d="M5542,4587 l-198.5,472" stroke="black" stroke-width="5"/>
<path d="M4000,7702 l60,0 l0,60 l-60,0 z" fill="green"/>
<path d="M4030,7732 l-569.5,-680" stroke="black" stroke-width="5"/>
<path d="M8545,8170 l60,0 l0,60 l-60,0 z" fill="green"/>
<path d="M8575,8200 l712.5,-424" stroke="black" stroke-width="5"/>
<path d="M1109,3709 l60,0 l0,60 l-60,0 z" fill="green"/>
<path d="M1139,3739 l-71.5,0.5" stroke="black" stroke-width="5"/>
<path d="M20,7385 l60,0 l0,60 l-60,0 z" fill="green"/>
<path d="M50,7415 l276,-106.5" stroke="black" stroke-width="5"/>
<path d="M904,4026 l60,0 l0,60 l-60,0 z" fill="green"/>
<path d="M934,4056 l-291,-5" stroke="black" stroke-width="5"/>
<path d="M8771,7148 l60,0 l0,60 l-60,0 z" fill="green"/>
<path d="M8801,7178 l385,-497.5" stroke="black" stroke-width="5"/>
<path d="M4469,6177 l60,0 l0,60 l-60,0 z" fill="green"/>
<path d="M4499,6207 l-25.5,-145.5" stroke="black" stroke-width="5"/>
<path d="M3066,3345 l60,0 l0,60 l-60,0 z" fill="green"/>
<path d="M3096,3375 l358.5,-361.5" stroke="black" stroke-width="5"/>
<path d="M5222,3251 l60,0 l0,60 l-60,0 z" fill="green"/>
<path d="M5252,3281 l-246,-303" stroke="black" stroke-width="5"/>
<path d="M2217,1416 l60,0 l0,60 l-60,0 z" fill="green"/>
<path d="M2247,1446 l-1007,203" stroke="black" stroke-width="5"/>
<path d="M3317,8471 l60,0 l0,60 l-60,0 z" fill="green"/>
<path d="M3347,8501 l-1355.5,-253" stroke="black" stroke-width="5"/>
<path d="M5761,8570 l60,0 l0,60 l-60,0 z" fill="green"/>
<path d="M5791,8600 l549.5,700" stroke="black" stroke-width="5"/>
<path d="M8003,8962 l60,0 l0,60 l-60,0 z" fill="green"/>
<path d="M8033,8992 l-179.5,-111.5" stroke="black" stroke-width="5"/>
<path d="M2267,9224 l60,0 l0,60 l-60,0 z" fill="green"/>
<path d="M2297,9254 l0,-53.5" stroke="black" stroke-width="5"/>
<path d="M4282,6146 l60,0 l0,60 l-60,0 z" fill="green"/>
<path d="M4312,6176 l-320,-117.5" stroke="black" stroke-width="5"/>
<text font-size="200" text-anchor="middle" x="2236.5" y="793">
0
</text>
<text font-size="200" text-anchor="middle" x="5810.5" y="6975.5">
1
</text>
<text font-size="200" text-anchor="middle" x="6174" y="358.5">
2
</text>
<text font-size="200" text-anchor="middle" x="5767" y="3039">
3
</text>
<text font-size="200" text-anchor="middle" x="6723" y="3304.5">
4
</text>
<text font-size="200" text-anchor="middle" x="4206" y="2118.5">
5
</text>
<text font-size="200" text-anchor="middle" x="7853.5" y="9562.5">
6
</text>
<text font-size="200" text-anchor="middle" x="8164.5" y="576">
7
</text>
<text font-size="200" text-anchor="middle" x="9048" y="5129.5">
8
</text>
<text font-size="200" text-anchor="middle" x="7206" y="9140.5">
9
</text>
<text font-size="200" text-anchor="middle" x="7743.5" y="2566.5">
10
</text>
<text font-size="200" text-anchor="middle" x="592.5" y="4905">
11
</text>
<text font-size="200" text-anchor="middle" x="7164.5" y="4179.5">
12
</text>
<text font-size="200" text-anchor="middle" x="5371" y="2341">
13
</text>
<text font-size="200" text-anchor="middle" x="5261.5" y="995.5">
14
</text>
<text font-size="200" text-anchor="middle" x="3546" y="5295">
15
</text>
<text font-size="200" text-anchor="middle" x="4667" y="3456.5">
16
</text>
<text font-size="200" text-anchor="middle" x="5698.5" y="8318">
17
</text>
<text font-size="200" text-anchor="middle" x="2518" y="9697.5">
18
</text>
<text font-size="200" text-anchor="middle" x="9002" y="3983">
19
</text>
<text font-size="200" text-anchor="middle" x="8667" y="9017">
20
</text>
<text font-size="200" text-anchor="middle" x="2827" y="1998.5">
21
</text>
<text font-size="200" text-anchor="middle" x="6964" y="4883.5">
22
</text>
<text font-size="200" text-anchor="middle" x="8312" y="7122">
23
</text>
<text font-size="200" text-anchor="middle" x="8268" y="3853">
24
</text>
<text font-size="200" text-anchor="middle" x="3155" y="8997.5">
25
</text>
<text font-size="200" text-anchor="middle" x="8099.5" y="5129.5">
26
</text>
<text font-size="200" text-anchor="middle" x="9451" y="365.5">
27
</text>
<text font-size="200" text-anchor="middle" x="7031" y="1447.5">
28
</text>
<text font-size="200" text-anchor="middle" x="1841.5" y="2407">
29
</text>
<text font-size="200" text-anchor="middle" x="317.5" y="8434">
30
</text>
<text font-size="200" text-anchor="middle" x="2934" y="4028.5">
31
</text>
<text font-size="200" text-anchor="middle" x="4845.5" y="9370">
32
</text>
<text font-size="200" text-anchor="middle" x="5513" y="3824">
33
</text>
<text font-size="200" text-anchor="middle" x="5343.5" y="5129">
34
</text>
<text font-size="200" text-anchor="middle" x="3460.5" y="7122">
35
</text>
<text font-size="200" text-anchor="middle" x="9287.5" y="7846">
36
</text>
<text font-size="200" text-anchor="middle" x="1067.5" y="3809.5">
37
</text>
<text font-size="200" text-anchor="middle" x="326" y="7378.5">
38
</text>
<text font-size="200" text-anchor="middle" x="643" y="4121">
39
</text>
<text font-size="200" text-anchor="middle" x="9186" y="6750.5">
40
</text>
<text font-size="200" text-anchor="middle" x="4473.5" y="6131.5">
41
</text>
<text font-size="200" text-anchor="middle" x="3454.5" y="3083.5">
42
</text>
<text font-size="200" text-anchor="middle" x="5006" y="3048">
43
</text>
<text font-size="200" text-anchor="middle" x="1240" y="1719">
44
</text>
<text font-size="200" text-anchor="middle" x="1991.5" y="8318">
45
</text>
<text font-size="200" text-anchor="middle" x="6340.5" y="9370">
46
</text>
<text font-size="200" text-anchor="middle" x="7853.5" y="8950.5">
47
</text>
<text font-size="200" text-anchor="middle" x="2297" y="9270.5">
48
</text>
<text font-size="200" text-anchor="middle" x="3992" y="6128.5">
49
</text>
</svg>